<?xml version="1.0" encoding="utf-8" standalone="no"?>
<!DOCTYPE svg PUBLIC "-//W3C//DTD SVG 1.1//EN"
  "http://www.w3.org/Graphics/SVG/1.1/DTD/svg11.dtd">
<!-- Created with matplotlib (http://matplotlib.org/) -->
<svg height="540pt" version="1.1" viewBox="0 0 1080 540" width="1080pt" xmlns="http://www.w3.org/2000/svg" xmlns:xlink="http://www.w3.org/1999/xlink">
 <defs>
  <style type="text/css">
*{stroke-linecap:butt;stroke-linejoin:round;}
  </style>
 </defs>
 <g id="figure_1">
  <g id="patch_1">
   <path d="M 0 540 
L 1080 540 
L 1080 0 
L 0 0 
z
" style="fill:#ffffff;"/>
  </g>
  <g id="axes_1">
   <g id="patch_2">
    <path d="M 135 472.5 
L 972 472.5 
L 972 64.8 
L 135 64.8 
z
" style="fill:#ffffff;"/>
   </g>
   <g id="PolyCollection_1">
    <defs>
     <path d="M 173.045455 -103.266399 
L 173.045455 -67.5 
L 196.823864 -67.5 
L 220.602273 -67.5 
L 244.380682 -67.5 
L 268.159091 -67.5 
L 291.9375 -67.5 
L 315.715909 -67.5 
L 339.494318 -67.5 
L 363.272727 -67.5 
L 387.051136 -67.5 
L 410.829545 -67.5 
L 434.607955 -67.5 
L 458.386364 -67.5 
L 482.164773 -67.5 
L 505.943182 -67.5 
L 529.721591 -67.5 
L 553.5 -67.5 
L 577.278409 -67.5 
L 601.056818 -67.5 
L 624.835227 -67.5 
L 648.613636 -67.5 
L 672.392045 -67.5 
L 696.170455 -67.5 
L 719.948864 -67.5 
L 743.727273 -67.5 
L 767.505682 -67.5 
L 791.284091 -67.5 
L 815.0625 -67.5 
L 838.840909 -67.5 
L 862.619318 -67.5 
L 886.397727 -67.5 
L 910.176136 -67.5 
L 933.954545 -67.5 
L 933.954545 -166.129394 
L 933.954545 -166.129394 
L 910.176136 -208.494449 
L 886.397727 -106.274926 
L 862.619318 -149.086301 
L 838.840909 -139.236014 
L 815.0625 -144.508225 
L 791.284091 -163.661996 
L 767.505682 -148.291044 
L 743.727273 -140.060968 
L 719.948864 -115.10642 
L 696.170455 -108.513812 
L 672.392045 -131.566405 
L 648.613636 -91.162609 
L 624.835227 -91.917841 
L 601.056818 -143.253427 
L 577.278409 -98.93352 
L 553.5 -126.070419 
L 529.721591 -101.161348 
L 505.943182 -131.350061 
L 482.164773 -142.883952 
L 458.386364 -124.808646 
L 434.607955 -136.306311 
L 410.829545 -118.636241 
L 387.051136 -97.974526 
L 363.272727 -99.414507 
L 339.494318 -100.817473 
L 315.715909 -120.672954 
L 291.9375 -120.778489 
L 268.159091 -103.22576 
L 244.380682 -143.951765 
L 220.602273 -102.322001 
L 196.823864 -127.191675 
L 173.045455 -103.266399 
z
" id="mee9374dcc9"/>
    </defs>
    <g clip-path="url(#p7726107205)">
     <use style="fill:#7fc97f;fill-opacity:0.4;" x="0" xlink:href="#mee9374dcc9" y="540"/>
    </g>
   </g>
   <g id="PolyCollection_2">
    <defs>
     <path d="M 173.045455 -262.639582 
L 173.045455 -103.266399 
L 196.823864 -127.191675 
L 220.602273 -102.322001 
L 244.380682 -143.951765 
L 268.159091 -103.22576 
L 291.9375 -120.778489 
L 315.715909 -120.672954 
L 339.494318 -100.817473 
L 363.272727 -99.414507 
L 387.051136 -97.974526 
L 410.829545 -118.636241 
L 434.607955 -136.306311 
L 458.386364 -124.808646 
L 482.164773 -142.883952 
L 505.943182 -131.350061 
L 529.721591 -101.161348 
L 553.5 -126.070419 
L 577.278409 -98.93352 
L 601.056818 -143.253427 
L 624.835227 -91.917841 
L 648.613636 -91.162609 
L 672.392045 -131.566405 
L 696.170455 -108.513812 
L 719.948864 -115.10642 
L 743.727273 -140.060968 
L 767.505682 -148.291044 
L 791.284091 -163.661996 
L 815.0625 -144.508225 
L 838.840909 -139.236014 
L 862.619318 -149.086301 
L 886.397727 -106.274926 
L 910.176136 -208.494449 
L 933.954545 -166.129394 
L 933.954545 -236.358116 
L 933.954545 -236.358116 
L 910.176136 -377.431968 
L 886.397727 -166.05188 
L 862.619318 -180.764612 
L 838.840909 -239.277865 
L 815.0625 -191.430574 
L 791.284091 -237.661293 
L 767.505682 -218.352388 
L 743.727273 -166.566424 
L 719.948864 -197.119112 
L 696.170455 -174.354042 
L 672.392045 -176.787443 
L 648.613636 -184.970498 
L 624.835227 -173.372967 
L 601.056818 -195.476383 
L 577.278409 -132.395652 
L 553.5 -246.027177 
L 529.721591 -190.982438 
L 505.943182 -211.261998 
L 482.164773 -186.984414 
L 458.386364 -197.558462 
L 434.607955 -188.413347 
L 410.829545 -204.229866 
L 387.051136 -189.852739 
L 363.272727 -149.450009 
L 339.494318 -168.526154 
L 315.715909 -172.934471 
L 291.9375 -196.662205 
L 268.159091 -183.742947 
L 244.380682 -239.405239 
L 220.602273 -185.746658 
L 196.823864 -182.548522 
L 173.045455 -262.639582 
z
" id="m4fe91b31d6"/>
    </defs>
    <g clip-path="url(#p7726107205)">
     <use style="fill:#beaed4;fill-opacity:0.4;" x="0" xlink:href="#m4fe91b31d6" y="540"/>
    </g>
   </g>
   <g id="PolyCollection_3">
    <defs>
     <path d="M 173.045455 -314.858082 
L 173.045455 -262.639582 
L 196.823864 -182.548522 
L 220.602273 -185.746658 
L 244.380682 -239.405239 
L 268.159091 -183.742947 
L 291.9375 -196.662205 
L 315.715909 -172.934471 
L 339.494318 -168.526154 
L 363.272727 -149.450009 
L 387.051136 -189.852739 
L 410.829545 -204.229866 
L 434.607955 -188.413347 
L 458.386364 -197.558462 
L 482.164773 -186.984414 
L 505.943182 -211.261998 
L 529.721591 -190.982438 
L 553.5 -246.027177 
L 577.278409 -132.395652 
L 601.056818 -195.476383 
L 624.835227 -173.372967 
L 648.613636 -184.970498 
L 672.392045 -176.787443 
L 696.170455 -174.354042 
L 719.948864 -197.119112 
L 743.727273 -166.566424 
L 767.505682 -218.352388 
L 791.284091 -237.661293 
L 815.0625 -191.430574 
L 838.840909 -239.277865 
L 862.619318 -180.764612 
L 886.397727 -166.05188 
L 910.176136 -377.431968 
L 933.954545 -236.358116 
L 933.954545 -305.557436 
L 933.954545 -305.557436 
L 910.176136 -389.87346 
L 886.397727 -223.322529 
L 862.619318 -211.596749 
L 838.840909 -265.600484 
L 815.0625 -233.89841 
L 791.284091 -275.500891 
L 767.505682 -259.258095 
L 743.727273 -196.243249 
L 719.948864 -257.677504 
L 696.170455 -232.688822 
L 672.392045 -242.28568 
L 648.613636 -301.268357 
L 624.835227 -279.762534 
L 601.056818 -266.814213 
L 577.278409 -324.755492 
L 553.5 -328.554107 
L 529.721591 -250.540205 
L 505.943182 -283.967645 
L 482.164773 -237.362959 
L 458.386364 -240.783782 
L 434.607955 -245.623167 
L 410.829545 -245.110285 
L 387.051136 -215.599033 
L 363.272727 -254.461037 
L 339.494318 -224.923573 
L 315.715909 -228.095506 
L 291.9375 -273.443497 
L 268.159091 -222.019304 
L 244.380682 -279.056818 
L 220.602273 -266.745494 
L 196.823864 -208.154863 
L 173.045455 -314.858082 
z
" id="m05f31224bb"/>
    </defs>
    <g clip-path="url(#p7726107205)">
     <use style="fill:#ffff99;fill-opacity:0.4;" x="0" xlink:href="#m05f31224bb" y="540"/>
    </g>
   </g>
   <g id="PolyCollection_4">
    <defs>
     <path d="M 173.045455 -376.034801 
L 173.045455 -314.858082 
L 196.823864 -208.154863 
L 220.602273 -266.745494 
L 244.380682 -279.056818 
L 268.159091 -222.019304 
L 291.9375 -273.443497 
L 315.715909 -228.095506 
L 339.494318 -224.923573 
L 363.272727 -254.461037 
L 387.051136 -215.599033 
L 410.829545 -245.110285 
L 434.607955 -245.623167 
L 458.386364 -240.783782 
L 482.164773 -237.362959 
L 505.943182 -283.967645 
L 529.721591 -250.540205 
L 553.5 -328.554107 
L 577.278409 -324.755492 
L 601.056818 -266.814213 
L 624.835227 -279.762534 
L 648.613636 -301.268357 
L 672.392045 -242.28568 
L 696.170455 -232.688822 
L 719.948864 -257.677504 
L 743.727273 -196.243249 
L 767.505682 -259.258095 
L 791.284091 -275.500891 
L 815.0625 -233.89841 
L 838.840909 -265.600484 
L 862.619318 -211.596749 
L 886.397727 -223.322529 
L 910.176136 -389.87346 
L 933.954545 -305.557436 
L 933.954545 -316.186089 
L 933.954545 -316.186089 
L 910.176136 -430.853961 
L 886.397727 -299.685244 
L 862.619318 -268.024375 
L 838.840909 -285.948064 
L 815.0625 -278.398233 
L 791.284091 -341.881492 
L 767.505682 -299.952643 
L 743.727273 -225.642355 
L 719.948864 -371.280163 
L 696.170455 -286.754 
L 672.392045 -360.457522 
L 648.613636 -357.120861 
L 624.835227 -305.272353 
L 601.056818 -337.760052 
L 577.278409 -363.284346 
L 553.5 -352.688529 
L 529.721591 -308.813436 
L 505.943182 -358.399367 
L 482.164773 -310.429946 
L 458.386364 -359.035783 
L 434.607955 -309.002351 
L 410.829545 -324.512035 
L 387.051136 -299.544828 
L 363.272727 -304.710504 
L 339.494318 -293.207025 
L 315.715909 -319.465791 
L 291.9375 -334.03912 
L 268.159091 -333.973667 
L 244.380682 -322.474827 
L 220.602273 -330.559648 
L 196.823864 -258.344695 
L 173.045455 -376.034801 
z
" id="m857a1b2d4e"/>
    </defs>
    <g clip-path="url(#p7726107205)">
     <use style="fill:#386cb0;fill-opacity:0.4;" x="0" xlink:href="#m857a1b2d4e" y="540"/>
    </g>
   </g>
   <g id="PolyCollection_5">
    <defs>
     <path d="M 173.045455 -389.343985 
L 173.045455 -376.034801 
L 196.823864 -258.344695 
L 220.602273 -330.559648 
L 244.380682 -322.474827 
L 268.159091 -333.973667 
L 291.9375 -334.03912 
L 315.715909 -319.465791 
L 339.494318 -293.207025 
L 363.272727 -304.710504 
L 387.051136 -299.544828 
L 410.829545 -324.512035 
L 434.607955 -309.002351 
L 458.386364 -359.035783 
L 482.164773 -310.429946 
L 505.943182 -358.399367 
L 529.721591 -308.813436 
L 553.5 -352.688529 
L 577.278409 -363.284346 
L 601.056818 -337.760052 
L 624.835227 -305.272353 
L 648.613636 -357.120861 
L 672.392045 -360.457522 
L 696.170455 -286.754 
L 719.948864 -371.280163 
L 743.727273 -225.642355 
L 767.505682 -299.952643 
L 791.284091 -341.881492 
L 815.0625 -278.398233 
L 838.840909 -285.948064 
L 862.619318 -268.024375 
L 886.397727 -299.685244 
L 910.176136 -430.853961 
L 933.954545 -316.186089 
L 933.954545 -445.156985 
L 933.954545 -445.156985 
L 910.176136 -443.308798 
L 886.397727 -389.579781 
L 862.619318 -398.889493 
L 838.840909 -402.681744 
L 815.0625 -327.614129 
L 791.284091 -403.844361 
L 767.505682 -407.034211 
L 743.727273 -254.774561 
L 719.948864 -419.229155 
L 696.170455 -397.996269 
L 672.392045 -376.952472 
L 648.613636 -421.760657 
L 624.835227 -355.386045 
L 601.056818 -414.350192 
L 577.278409 -418.530134 
L 553.5 -418.57553 
L 529.721591 -383.829121 
L 505.943182 -414.894371 
L 482.164773 -409.226375 
L 458.386364 -413.634586 
L 434.607955 -385.44161 
L 410.829545 -394.26185 
L 387.051136 -413.41968 
L 363.272727 -411.583937 
L 339.494318 -410.687012 
L 315.715909 -383.8146 
L 291.9375 -391.952887 
L 268.159091 -422.925054 
L 244.380682 -387.120134 
L 220.602273 -409.816865 
L 196.823864 -413.296586 
L 173.045455 -389.343985 
z
" id="m54976902a0"/>
    </defs>
    <g clip-path="url(#p7726107205)">
     <use style="fill:#bf5b17;fill-opacity:0.4;" x="0" xlink:href="#m54976902a0" y="540"/>
    </g>
   </g>
   <g id="PolyCollection_6">
    <defs>
     <path d="M 173.045455 -455.785714 
L 173.045455 -389.343985 
L 196.823864 -413.296586 
L 220.602273 -409.816865 
L 244.380682 -387.120134 
L 268.159091 -422.925054 
L 291.9375 -391.952887 
L 315.715909 -383.8146 
L 339.494318 -410.687012 
L 363.272727 -411.583937 
L 387.051136 -413.41968 
L 410.829545 -394.26185 
L 434.607955 -385.44161 
L 458.386364 -413.634586 
L 482.164773 -409.226375 
L 505.943182 -414.894371 
L 529.721591 -383.829121 
L 553.5 -418.57553 
L 577.278409 -418.530134 
L 601.056818 -414.350192 
L 624.835227 -355.386045 
L 648.613636 -421.760657 
L 672.392045 -376.952472 
L 696.170455 -397.996269 
L 719.948864 -419.229155 
L 743.727273 -254.774561 
L 767.505682 -407.034211 
L 791.284091 -403.844361 
L 815.0625 -327.614129 
L 838.840909 -402.681744 
L 862.619318 -398.889493 
L 886.397727 -389.579781 
L 910.176136 -443.308798 
L 933.954545 -445.156985 
L 933.954545 -455.785714 
L 933.954545 -455.785714 
L 910.176136 -455.785714 
L 886.397727 -455.785714 
L 862.619318 -455.785714 
L 838.840909 -455.785714 
L 815.0625 -455.785714 
L 791.284091 -455.785714 
L 767.505682 -455.785714 
L 743.727273 -455.785714 
L 719.948864 -455.785714 
L 696.170455 -455.785714 
L 672.392045 -455.785714 
L 648.613636 -455.785714 
L 624.835227 -455.785714 
L 601.056818 -455.785714 
L 577.278409 -455.785714 
L 553.5 -455.785714 
L 529.721591 -455.785714 
L 505.943182 -455.785714 
L 482.164773 -455.785714 
L 458.386364 -455.785714 
L 434.607955 -455.785714 
L 410.829545 -455.785714 
L 387.051136 -455.785714 
L 363.272727 -455.785714 
L 339.494318 -455.785714 
L 315.715909 -455.785714 
L 291.9375 -455.785714 
L 268.159091 -455.785714 
L 244.380682 -455.785714 
L 220.602273 -455.785714 
L 196.823864 -455.785714 
L 173.045455 -455.785714 
z
" id="mbfd13abb02"/>
    </defs>
    <g clip-path="url(#p7726107205)">
     <use style="fill:#666666;fill-opacity:0.4;" x="0" xlink:href="#mbfd13abb02" y="540"/>
    </g>
   </g>
   <g id="matplotlib.axis_1">
    <g id="xtick_1">
     <g id="line2d_1">
      <defs>
       <path d="M 0 0 
L 0 3.5 
" id="mcaa709ef7f" style="stroke:#000000;stroke-width:0.8;"/>
      </defs>
      <g>
       <use style="stroke:#000000;stroke-width:0.8;" x="173.045455" xlink:href="#mcaa709ef7f" y="472.5"/>
      </g>
     </g>
     <g id="text_1">
      <!-- Jan-13 -->
      <defs>
       <path d="M 9.8125 72.90625 
L 19.671875 72.90625 
L 19.671875 5.078125 
Q 19.671875 -8.109375 14.671875 -14.0625 
Q 9.671875 -20.015625 -1.421875 -20.015625 
L -5.171875 -20.015625 
L -5.171875 -11.71875 
L -2.09375 -11.71875 
Q 4.4375 -11.71875 7.125 -8.046875 
Q 9.8125 -4.390625 9.8125 5.078125 
z
" id="DejaVuSans-4a"/>
       <path d="M 34.28125 27.484375 
Q 23.390625 27.484375 19.1875 25 
Q 14.984375 22.515625 14.984375 16.5 
Q 14.984375 11.71875 18.140625 8.90625 
Q 21.296875 6.109375 26.703125 6.109375 
Q 34.1875 6.109375 38.703125 11.40625 
Q 43.21875 16.703125 43.21875 25.484375 
L 43.21875 27.484375 
z
M 52.203125 31.203125 
L 52.203125 0 
L 43.21875 0 
L 43.21875 8.296875 
Q 40.140625 3.328125 35.546875 0.953125 
Q 30.953125 -1.421875 24.3125 -1.421875 
Q 15.921875 -1.421875 10.953125 3.296875 
Q 6 8.015625 6 15.921875 
Q 6 25.140625 12.171875 29.828125 
Q 18.359375 34.515625 30.609375 34.515625 
L 43.21875 34.515625 
L 43.21875 35.40625 
Q 43.21875 41.609375 39.140625 45 
Q 35.0625 48.390625 27.6875 48.390625 
Q 23 48.390625 18.546875 47.265625 
Q 14.109375 46.140625 10.015625 43.890625 
L 10.015625 52.203125 
Q 14.9375 54.109375 19.578125 55.046875 
Q 24.21875 56 28.609375 56 
Q 40.484375 56 46.34375 49.84375 
Q 52.203125 43.703125 52.203125 31.203125 
z
" id="DejaVuSans-61"/>
       <path d="M 54.890625 33.015625 
L 54.890625 0 
L 45.90625 0 
L 45.90625 32.71875 
Q 45.90625 40.484375 42.875 44.328125 
Q 39.84375 48.1875 33.796875 48.1875 
Q 26.515625 48.1875 22.3125 43.546875 
Q 18.109375 38.921875 18.109375 30.90625 
L 18.109375 0 
L 9.078125 0 
L 9.078125 54.6875 
L 18.109375 54.6875 
L 18.109375 46.1875 
Q 21.34375 51.125 25.703125 53.5625 
Q 30.078125 56 35.796875 56 
Q 45.21875 56 50.046875 50.171875 
Q 54.890625 44.34375 54.890625 33.015625 
z
" id="DejaVuSans-6e"/>
       <path d="M 4.890625 31.390625 
L 31.203125 31.390625 
L 31.203125 23.390625 
L 4.890625 23.390625 
z
" id="DejaVuSans-2d"/>
       <path d="M 12.40625 8.296875 
L 28.515625 8.296875 
L 28.515625 63.921875 
L 10.984375 60.40625 
L 10.984375 69.390625 
L 28.421875 72.90625 
L 38.28125 72.90625 
L 38.28125 8.296875 
L 54.390625 8.296875 
L 54.390625 0 
L 12.40625 0 
z
" id="DejaVuSans-31"/>
       <path d="M 40.578125 39.3125 
Q 47.65625 37.796875 51.625 33 
Q 55.609375 28.21875 55.609375 21.1875 
Q 55.609375 10.40625 48.1875 4.484375 
Q 40.765625 -1.421875 27.09375 -1.421875 
Q 22.515625 -1.421875 17.65625 -0.515625 
Q 12.796875 0.390625 7.625 2.203125 
L 7.625 11.71875 
Q 11.71875 9.328125 16.59375 8.109375 
Q 21.484375 6.890625 26.8125 6.890625 
Q 36.078125 6.890625 40.9375 10.546875 
Q 45.796875 14.203125 45.796875 21.1875 
Q 45.796875 27.640625 41.28125 31.265625 
Q 36.765625 34.90625 28.71875 34.90625 
L 20.21875 34.90625 
L 20.21875 43.015625 
L 29.109375 43.015625 
Q 36.375 43.015625 40.234375 45.921875 
Q 44.09375 48.828125 44.09375 54.296875 
Q 44.09375 59.90625 40.109375 62.90625 
Q 36.140625 65.921875 28.71875 65.921875 
Q 24.65625 65.921875 20.015625 65.03125 
Q 15.375 64.15625 9.8125 62.3125 
L 9.8125 71.09375 
Q 15.4375 72.65625 20.34375 73.4375 
Q 25.25 74.21875 29.59375 74.21875 
Q 40.828125 74.21875 47.359375 69.109375 
Q 53.90625 64.015625 53.90625 55.328125 
Q 53.90625 49.265625 50.4375 45.09375 
Q 46.96875 40.921875 40.578125 39.3125 
z
" id="DejaVuSans-33"/>
      </defs>
      <g transform="translate(176.356705 517.598125)rotate(-90)scale(0.12 -0.12)">
       <use xlink:href="#DejaVuSans-4a"/>
       <use x="29.492188" xlink:href="#DejaVuSans-61"/>
       <use x="90.771484" xlink:href="#DejaVuSans-6e"/>
       <use x="154.150391" xlink:href="#DejaVuSans-2d"/>
       <use x="190.234375" xlink:href="#DejaVuSans-31"/>
       <use x="253.857422" xlink:href="#DejaVuSans-33"/>
      </g>
     </g>
    </g>
    <g id="xtick_2">
     <g id="line2d_2">
      <g>
       <use style="stroke:#000000;stroke-width:0.8;" x="196.823864" xlink:href="#mcaa709ef7f" y="472.5"/>
      </g>
     </g>
     <g id="text_2">
      <!-- Jan-14 -->
      <defs>
       <path d="M 37.796875 64.3125 
L 12.890625 25.390625 
L 37.796875 25.390625 
z
M 35.203125 72.90625 
L 47.609375 72.90625 
L 47.609375 25.390625 
L 58.015625 25.390625 
L 58.015625 17.1875 
L 47.609375 17.1875 
L 47.609375 0 
L 37.796875 0 
L 37.796875 17.1875 
L 4.890625 17.1875 
L 4.890625 26.703125 
z
" id="DejaVuSans-34"/>
      </defs>
      <g transform="translate(200.135114 517.598125)rotate(-90)scale(0.12 -0.12)">
       <use xlink:href="#DejaVuSans-4a"/>
       <use x="29.492188" xlink:href="#DejaVuSans-61"/>
       <use x="90.771484" xlink:href="#DejaVuSans-6e"/>
       <use x="154.150391" xlink:href="#DejaVuSans-2d"/>
       <use x="190.234375" xlink:href="#DejaVuSans-31"/>
       <use x="253.857422" xlink:href="#DejaVuSans-34"/>
      </g>
     </g>
    </g>
    <g id="xtick_3">
     <g id="line2d_3">
      <g>
       <use style="stroke:#000000;stroke-width:0.8;" x="220.602273" xlink:href="#mcaa709ef7f" y="472.5"/>
      </g>
     </g>
     <g id="text_3">
      <!-- Jan-15 -->
      <defs>
       <path d="M 10.796875 72.90625 
L 49.515625 72.90625 
L 49.515625 64.59375 
L 19.828125 64.59375 
L 19.828125 46.734375 
Q 21.96875 47.46875 24.109375 47.828125 
Q 26.265625 48.1875 28.421875 48.1875 
Q 40.625 48.1875 47.75 41.5 
Q 54.890625 34.8125 54.890625 23.390625 
Q 54.890625 11.625 47.5625 5.09375 
Q 40.234375 -1.421875 26.90625 -1.421875 
Q 22.3125 -1.421875 17.546875 -0.640625 
Q 12.796875 0.140625 7.71875 1.703125 
L 7.71875 11.625 
Q 12.109375 9.234375 16.796875 8.0625 
Q 21.484375 6.890625 26.703125 6.890625 
Q 35.15625 6.890625 40.078125 11.328125 
Q 45.015625 15.765625 45.015625 23.390625 
Q 45.015625 31 40.078125 35.4375 
Q 35.15625 39.890625 26.703125 39.890625 
Q 22.75 39.890625 18.8125 39.015625 
Q 14.890625 38.140625 10.796875 36.28125 
z
" id="DejaVuSans-35"/>
      </defs>
      <g transform="translate(223.913523 517.598125)rotate(-90)scale(0.12 -0.12)">
       <use xlink:href="#DejaVuSans-4a"/>
       <use x="29.492188" xlink:href="#DejaVuSans-61"/>
       <use x="90.771484" xlink:href="#DejaVuSans-6e"/>
       <use x="154.150391" xlink:href="#DejaVuSans-2d"/>
       <use x="190.234375" xlink:href="#DejaVuSans-31"/>
       <use x="253.857422" xlink:href="#DejaVuSans-35"/>
      </g>
     </g>
    </g>
    <g id="xtick_4">
     <g id="line2d_4">
      <g>
       <use style="stroke:#000000;stroke-width:0.8;" x="244.380682" xlink:href="#mcaa709ef7f" y="472.5"/>
      </g>
     </g>
     <g id="text_4">
      <!-- Jan-16 -->
      <defs>
       <path d="M 33.015625 40.375 
Q 26.375 40.375 22.484375 35.828125 
Q 18.609375 31.296875 18.609375 23.390625 
Q 18.609375 15.53125 22.484375 10.953125 
Q 26.375 6.390625 33.015625 6.390625 
Q 39.65625 6.390625 43.53125 10.953125 
Q 47.40625 15.53125 47.40625 23.390625 
Q 47.40625 31.296875 43.53125 35.828125 
Q 39.65625 40.375 33.015625 40.375 
z
M 52.59375 71.296875 
L 52.59375 62.3125 
Q 48.875 64.0625 45.09375 64.984375 
Q 41.3125 65.921875 37.59375 65.921875 
Q 27.828125 65.921875 22.671875 59.328125 
Q 17.53125 52.734375 16.796875 39.40625 
Q 19.671875 43.65625 24.015625 45.921875 
Q 28.375 48.1875 33.59375 48.1875 
Q 44.578125 48.1875 50.953125 41.515625 
Q 57.328125 34.859375 57.328125 23.390625 
Q 57.328125 12.15625 50.6875 5.359375 
Q 44.046875 -1.421875 33.015625 -1.421875 
Q 20.359375 -1.421875 13.671875 8.265625 
Q 6.984375 17.96875 6.984375 36.375 
Q 6.984375 53.65625 15.1875 63.9375 
Q 23.390625 74.21875 37.203125 74.21875 
Q 40.921875 74.21875 44.703125 73.484375 
Q 48.484375 72.75 52.59375 71.296875 
z
" id="DejaVuSans-36"/>
      </defs>
      <g transform="translate(247.691932 517.598125)rotate(-90)scale(0.12 -0.12)">
       <use xlink:href="#DejaVuSans-4a"/>
       <use x="29.492188" xlink:href="#DejaVuSans-61"/>
       <use x="90.771484" xlink:href="#DejaVuSans-6e"/>
       <use x="154.150391" xlink:href="#DejaVuSans-2d"/>
       <use x="190.234375" xlink:href="#DejaVuSans-31"/>
       <use x="253.857422" xlink:href="#DejaVuSans-36"/>
      </g>
     </g>
    </g>
    <g id="xtick_5">
     <g id="line2d_5">
      <g>
       <use style="stroke:#000000;stroke-width:0.8;" x="268.159091" xlink:href="#mcaa709ef7f" y="472.5"/>
      </g>
     </g>
     <g id="text_5">
      <!-- Jan-17 -->
      <defs>
       <path d="M 8.203125 72.90625 
L 55.078125 72.90625 
L 55.078125 68.703125 
L 28.609375 0 
L 18.3125 0 
L 43.21875 64.59375 
L 8.203125 64.59375 
z
" id="DejaVuSans-37"/>
      </defs>
      <g transform="translate(271.470341 517.598125)rotate(-90)scale(0.12 -0.12)">
       <use xlink:href="#DejaVuSans-4a"/>
       <use x="29.492188" xlink:href="#DejaVuSans-61"/>
       <use x="90.771484" xlink:href="#DejaVuSans-6e"/>
       <use x="154.150391" xlink:href="#DejaVuSans-2d"/>
       <use x="190.234375" xlink:href="#DejaVuSans-31"/>
       <use x="253.857422" xlink:href="#DejaVuSans-37"/>
      </g>
     </g>
    </g>
    <g id="xtick_6">
     <g id="line2d_6">
      <g>
       <use style="stroke:#000000;stroke-width:0.8;" x="291.9375" xlink:href="#mcaa709ef7f" y="472.5"/>
      </g>
     </g>
     <g id="text_6">
      <!-- Jan-18 -->
      <defs>
       <path d="M 31.78125 34.625 
Q 24.75 34.625 20.71875 30.859375 
Q 16.703125 27.09375 16.703125 20.515625 
Q 16.703125 13.921875 20.71875 10.15625 
Q 24.75 6.390625 31.78125 6.390625 
Q 38.8125 6.390625 42.859375 10.171875 
Q 46.921875 13.96875 46.921875 20.515625 
Q 46.921875 27.09375 42.890625 30.859375 
Q 38.875 34.625 31.78125 34.625 
z
M 21.921875 38.8125 
Q 15.578125 40.375 12.03125 44.71875 
Q 8.5 49.078125 8.5 55.328125 
Q 8.5 64.0625 14.71875 69.140625 
Q 20.953125 74.21875 31.78125 74.21875 
Q 42.671875 74.21875 48.875 69.140625 
Q 55.078125 64.0625 55.078125 55.328125 
Q 55.078125 49.078125 51.53125 44.71875 
Q 48 40.375 41.703125 38.8125 
Q 48.828125 37.15625 52.796875 32.3125 
Q 56.78125 27.484375 56.78125 20.515625 
Q 56.78125 9.90625 50.3125 4.234375 
Q 43.84375 -1.421875 31.78125 -1.421875 
Q 19.734375 -1.421875 13.25 4.234375 
Q 6.78125 9.90625 6.78125 20.515625 
Q 6.78125 27.484375 10.78125 32.3125 
Q 14.796875 37.15625 21.921875 38.8125 
z
M 18.3125 54.390625 
Q 18.3125 48.734375 21.84375 45.5625 
Q 25.390625 42.390625 31.78125 42.390625 
Q 38.140625 42.390625 41.71875 45.5625 
Q 45.3125 48.734375 45.3125 54.390625 
Q 45.3125 60.0625 41.71875 63.234375 
Q 38.140625 66.40625 31.78125 66.40625 
Q 25.390625 66.40625 21.84375 63.234375 
Q 18.3125 60.0625 18.3125 54.390625 
z
" id="DejaVuSans-38"/>
      </defs>
      <g transform="translate(295.24875 517.598125)rotate(-90)scale(0.12 -0.12)">
       <use xlink:href="#DejaVuSans-4a"/>
       <use x="29.492188" xlink:href="#DejaVuSans-61"/>
       <use x="90.771484" xlink:href="#DejaVuSans-6e"/>
       <use x="154.150391" xlink:href="#DejaVuSans-2d"/>
       <use x="190.234375" xlink:href="#DejaVuSans-31"/>
       <use x="253.857422" xlink:href="#DejaVuSans-38"/>
      </g>
     </g>
    </g>
    <g id="xtick_7">
     <g id="line2d_7">
      <g>
       <use style="stroke:#000000;stroke-width:0.8;" x="315.715909" xlink:href="#mcaa709ef7f" y="472.5"/>
      </g>
     </g>
     <g id="text_7">
      <!-- Jan-19 -->
      <defs>
       <path d="M 10.984375 1.515625 
L 10.984375 10.5 
Q 14.703125 8.734375 18.5 7.8125 
Q 22.3125 6.890625 25.984375 6.890625 
Q 35.75 6.890625 40.890625 13.453125 
Q 46.046875 20.015625 46.78125 33.40625 
Q 43.953125 29.203125 39.59375 26.953125 
Q 35.25 24.703125 29.984375 24.703125 
Q 19.046875 24.703125 12.671875 31.3125 
Q 6.296875 37.9375 6.296875 49.421875 
Q 6.296875 60.640625 12.9375 67.421875 
Q 19.578125 74.21875 30.609375 74.21875 
Q 43.265625 74.21875 49.921875 64.515625 
Q 56.59375 54.828125 56.59375 36.375 
Q 56.59375 19.140625 48.40625 8.859375 
Q 40.234375 -1.421875 26.421875 -1.421875 
Q 22.703125 -1.421875 18.890625 -0.6875 
Q 15.09375 0.046875 10.984375 1.515625 
z
M 30.609375 32.421875 
Q 37.25 32.421875 41.125 36.953125 
Q 45.015625 41.5 45.015625 49.421875 
Q 45.015625 57.28125 41.125 61.84375 
Q 37.25 66.40625 30.609375 66.40625 
Q 23.96875 66.40625 20.09375 61.84375 
Q 16.21875 57.28125 16.21875 49.421875 
Q 16.21875 41.5 20.09375 36.953125 
Q 23.96875 32.421875 30.609375 32.421875 
z
" id="DejaVuSans-39"/>
      </defs>
      <g transform="translate(319.027159 517.598125)rotate(-90)scale(0.12 -0.12)">
       <use xlink:href="#DejaVuSans-4a"/>
       <use x="29.492188" xlink:href="#DejaVuSans-61"/>
       <use x="90.771484" xlink:href="#DejaVuSans-6e"/>
       <use x="154.150391" xlink:href="#DejaVuSans-2d"/>
       <use x="190.234375" xlink:href="#DejaVuSans-31"/>
       <use x="253.857422" xlink:href="#DejaVuSans-39"/>
      </g>
     </g>
    </g>
    <g id="xtick_8">
     <g id="line2d_8">
      <g>
       <use style="stroke:#000000;stroke-width:0.8;" x="339.494318" xlink:href="#mcaa709ef7f" y="472.5"/>
      </g>
     </g>
     <g id="text_8">
      <!-- Jan-20 -->
      <defs>
       <path d="M 19.1875 8.296875 
L 53.609375 8.296875 
L 53.609375 0 
L 7.328125 0 
L 7.328125 8.296875 
Q 12.9375 14.109375 22.625 23.890625 
Q 32.328125 33.6875 34.8125 36.53125 
Q 39.546875 41.84375 41.421875 45.53125 
Q 43.3125 49.21875 43.3125 52.78125 
Q 43.3125 58.59375 39.234375 62.25 
Q 35.15625 65.921875 28.609375 65.921875 
Q 23.96875 65.921875 18.8125 64.3125 
Q 13.671875 62.703125 7.8125 59.421875 
L 7.8125 69.390625 
Q 13.765625 71.78125 18.9375 73 
Q 24.125 74.21875 28.421875 74.21875 
Q 39.75 74.21875 46.484375 68.546875 
Q 53.21875 62.890625 53.21875 53.421875 
Q 53.21875 48.921875 51.53125 44.890625 
Q 49.859375 40.875 45.40625 35.40625 
Q 44.1875 33.984375 37.640625 27.21875 
Q 31.109375 20.453125 19.1875 8.296875 
z
" id="DejaVuSans-32"/>
       <path d="M 31.78125 66.40625 
Q 24.171875 66.40625 20.328125 58.90625 
Q 16.5 51.421875 16.5 36.375 
Q 16.5 21.390625 20.328125 13.890625 
Q 24.171875 6.390625 31.78125 6.390625 
Q 39.453125 6.390625 43.28125 13.890625 
Q 47.125 21.390625 47.125 36.375 
Q 47.125 51.421875 43.28125 58.90625 
Q 39.453125 66.40625 31.78125 66.40625 
z
M 31.78125 74.21875 
Q 44.046875 74.21875 50.515625 64.515625 
Q 56.984375 54.828125 56.984375 36.375 
Q 56.984375 17.96875 50.515625 8.265625 
Q 44.046875 -1.421875 31.78125 -1.421875 
Q 19.53125 -1.421875 13.0625 8.265625 
Q 6.59375 17.96875 6.59375 36.375 
Q 6.59375 54.828125 13.0625 64.515625 
Q 19.53125 74.21875 31.78125 74.21875 
z
" id="DejaVuSans-30"/>
      </defs>
      <g transform="translate(342.805568 517.598125)rotate(-90)scale(0.12 -0.12)">
       <use xlink:href="#DejaVuSans-4a"/>
       <use x="29.492188" xlink:href="#DejaVuSans-61"/>
       <use x="90.771484" xlink:href="#DejaVuSans-6e"/>
       <use x="154.150391" xlink:href="#DejaVuSans-2d"/>
       <use x="190.234375" xlink:href="#DejaVuSans-32"/>
       <use x="253.857422" xlink:href="#DejaVuSans-30"/>
      </g>
     </g>
    </g>
    <g id="xtick_9">
     <g id="line2d_9">
      <g>
       <use style="stroke:#000000;stroke-width:0.8;" x="363.272727" xlink:href="#mcaa709ef7f" y="472.5"/>
      </g>
     </g>
     <g id="text_9">
      <!-- Jan-21 -->
      <g transform="translate(366.583977 517.598125)rotate(-90)scale(0.12 -0.12)">
       <use xlink:href="#DejaVuSans-4a"/>
       <use x="29.492188" xlink:href="#DejaVuSans-61"/>
       <use x="90.771484" xlink:href="#DejaVuSans-6e"/>
       <use x="154.150391" xlink:href="#DejaVuSans-2d"/>
       <use x="190.234375" xlink:href="#DejaVuSans-32"/>
       <use x="253.857422" xlink:href="#DejaVuSans-31"/>
      </g>
     </g>
    </g>
    <g id="xtick_10">
     <g id="line2d_10">
      <g>
       <use style="stroke:#000000;stroke-width:0.8;" x="387.051136" xlink:href="#mcaa709ef7f" y="472.5"/>
      </g>
     </g>
     <g id="text_10">
      <!-- Jan-22 -->
      <g transform="translate(390.362386 517.598125)rotate(-90)scale(0.12 -0.12)">
       <use xlink:href="#DejaVuSans-4a"/>
       <use x="29.492188" xlink:href="#DejaVuSans-61"/>
       <use x="90.771484" xlink:href="#DejaVuSans-6e"/>
       <use x="154.150391" xlink:href="#DejaVuSans-2d"/>
       <use x="190.234375" xlink:href="#DejaVuSans-32"/>
       <use x="253.857422" xlink:href="#DejaVuSans-32"/>
      </g>
     </g>
    </g>
    <g id="xtick_11">
     <g id="line2d_11">
      <g>
       <use style="stroke:#000000;stroke-width:0.8;" x="410.829545" xlink:href="#mcaa709ef7f" y="472.5"/>
      </g>
     </g>
     <g id="text_11">
      <!-- Jan-23 -->
      <g transform="translate(414.140795 517.598125)rotate(-90)scale(0.12 -0.12)">
       <use xlink:href="#DejaVuSans-4a"/>
       <use x="29.492188" xlink:href="#DejaVuSans-61"/>
       <use x="90.771484" xlink:href="#DejaVuSans-6e"/>
       <use x="154.150391" xlink:href="#DejaVuSans-2d"/>
       <use x="190.234375" xlink:href="#DejaVuSans-32"/>
       <use x="253.857422" xlink:href="#DejaVuSans-33"/>
      </g>
     </g>
    </g>
    <g id="xtick_12">
     <g id="line2d_12">
      <g>
       <use style="stroke:#000000;stroke-width:0.8;" x="434.607955" xlink:href="#mcaa709ef7f" y="472.5"/>
      </g>
     </g>
     <g id="text_12">
      <!-- Jan-24 -->
      <g transform="translate(437.919205 517.598125)rotate(-90)scale(0.12 -0.12)">
       <use xlink:href="#DejaVuSans-4a"/>
       <use x="29.492188" xlink:href="#DejaVuSans-61"/>
       <use x="90.771484" xlink:href="#DejaVuSans-6e"/>
       <use x="154.150391" xlink:href="#DejaVuSans-2d"/>
       <use x="190.234375" xlink:href="#DejaVuSans-32"/>
       <use x="253.857422" xlink:href="#DejaVuSans-34"/>
      </g>
     </g>
    </g>
    <g id="xtick_13">
     <g id="line2d_13">
      <g>
       <use style="stroke:#000000;stroke-width:0.8;" x="458.386364" xlink:href="#mcaa709ef7f" y="472.5"/>
      </g>
     </g>
     <g id="text_13">
      <!-- Jan-25 -->
      <g transform="translate(461.697614 517.598125)rotate(-90)scale(0.12 -0.12)">
       <use xlink:href="#DejaVuSans-4a"/>
       <use x="29.492188" xlink:href="#DejaVuSans-61"/>
       <use x="90.771484" xlink:href="#DejaVuSans-6e"/>
       <use x="154.150391" xlink:href="#DejaVuSans-2d"/>
       <use x="190.234375" xlink:href="#DejaVuSans-32"/>
       <use x="253.857422" xlink:href="#DejaVuSans-35"/>
      </g>
     </g>
    </g>
    <g id="xtick_14">
     <g id="line2d_14">
      <g>
       <use style="stroke:#000000;stroke-width:0.8;" x="482.164773" xlink:href="#mcaa709ef7f" y="472.5"/>
      </g>
     </g>
     <g id="text_14">
      <!-- Jan-26 -->
      <g transform="translate(485.476023 517.598125)rotate(-90)scale(0.12 -0.12)">
       <use xlink:href="#DejaVuSans-4a"/>
       <use x="29.492188" xlink:href="#DejaVuSans-61"/>
       <use x="90.771484" xlink:href="#DejaVuSans-6e"/>
       <use x="154.150391" xlink:href="#DejaVuSans-2d"/>
       <use x="190.234375" xlink:href="#DejaVuSans-32"/>
       <use x="253.857422" xlink:href="#DejaVuSans-36"/>
      </g>
     </g>
    </g>
    <g id="xtick_15">
     <g id="line2d_15">
      <g>
       <use style="stroke:#000000;stroke-width:0.8;" x="505.943182" xlink:href="#mcaa709ef7f" y="472.5"/>
      </g>
     </g>
     <g id="text_15">
      <!-- Jan-27 -->
      <g transform="translate(509.254432 517.598125)rotate(-90)scale(0.12 -0.12)">
       <use xlink:href="#DejaVuSans-4a"/>
       <use x="29.492188" xlink:href="#DejaVuSans-61"/>
       <use x="90.771484" xlink:href="#DejaVuSans-6e"/>
       <use x="154.150391" xlink:href="#DejaVuSans-2d"/>
       <use x="190.234375" xlink:href="#DejaVuSans-32"/>
       <use x="253.857422" xlink:href="#DejaVuSans-37"/>
      </g>
     </g>
    </g>
    <g id="xtick_16">
     <g id="line2d_16">
      <g>
       <use style="stroke:#000000;stroke-width:0.8;" x="529.721591" xlink:href="#mcaa709ef7f" y="472.5"/>
      </g>
     </g>
     <g id="text_16">
      <!-- Jan-28 -->
      <g transform="translate(533.032841 517.598125)rotate(-90)scale(0.12 -0.12)">
       <use xlink:href="#DejaVuSans-4a"/>
       <use x="29.492188" xlink:href="#DejaVuSans-61"/>
       <use x="90.771484" xlink:href="#DejaVuSans-6e"/>
       <use x="154.150391" xlink:href="#DejaVuSans-2d"/>
       <use x="190.234375" xlink:href="#DejaVuSans-32"/>
       <use x="253.857422" xlink:href="#DejaVuSans-38"/>
      </g>
     </g>
    </g>
    <g id="xtick_17">
     <g id="line2d_17">
      <g>
       <use style="stroke:#000000;stroke-width:0.8;" x="553.5" xlink:href="#mcaa709ef7f" y="472.5"/>
      </g>
     </g>
     <g id="text_17">
      <!-- Jan-29 -->
      <g transform="translate(556.81125 517.598125)rotate(-90)scale(0.12 -0.12)">
       <use xlink:href="#DejaVuSans-4a"/>
       <use x="29.492188" xlink:href="#DejaVuSans-61"/>
       <use x="90.771484" xlink:href="#DejaVuSans-6e"/>
       <use x="154.150391" xlink:href="#DejaVuSans-2d"/>
       <use x="190.234375" xlink:href="#DejaVuSans-32"/>
       <use x="253.857422" xlink:href="#DejaVuSans-39"/>
      </g>
     </g>
    </g>
    <g id="xtick_18">
     <g id="line2d_18">
      <g>
       <use style="stroke:#000000;stroke-width:0.8;" x="577.278409" xlink:href="#mcaa709ef7f" y="472.5"/>
      </g>
     </g>
     <g id="text_18">
      <!-- Jan-30 -->
      <g transform="translate(580.589659 517.598125)rotate(-90)scale(0.12 -0.12)">
       <use xlink:href="#DejaVuSans-4a"/>
       <use x="29.492188" xlink:href="#DejaVuSans-61"/>
       <use x="90.771484" xlink:href="#DejaVuSans-6e"/>
       <use x="154.150391" xlink:href="#DejaVuSans-2d"/>
       <use x="190.234375" xlink:href="#DejaVuSans-33"/>
       <use x="253.857422" xlink:href="#DejaVuSans-30"/>
      </g>
     </g>
    </g>
    <g id="xtick_19">
     <g id="line2d_19">
      <g>
       <use style="stroke:#000000;stroke-width:0.8;" x="601.056818" xlink:href="#mcaa709ef7f" y="472.5"/>
      </g>
     </g>
     <g id="text_19">
      <!-- Jan-31 -->
      <g transform="translate(604.368068 517.598125)rotate(-90)scale(0.12 -0.12)">
       <use xlink:href="#DejaVuSans-4a"/>
       <use x="29.492188" xlink:href="#DejaVuSans-61"/>
       <use x="90.771484" xlink:href="#DejaVuSans-6e"/>
       <use x="154.150391" xlink:href="#DejaVuSans-2d"/>
       <use x="190.234375" xlink:href="#DejaVuSans-33"/>
       <use x="253.857422" xlink:href="#DejaVuSans-31"/>
      </g>
     </g>
    </g>
    <g id="xtick_20">
     <g id="line2d_20">
      <g>
       <use style="stroke:#000000;stroke-width:0.8;" x="624.835227" xlink:href="#mcaa709ef7f" y="472.5"/>
      </g>
     </g>
     <g id="text_20">
      <!-- Feb-01 -->
      <defs>
       <path d="M 9.8125 72.90625 
L 51.703125 72.90625 
L 51.703125 64.59375 
L 19.671875 64.59375 
L 19.671875 43.109375 
L 48.578125 43.109375 
L 48.578125 34.8125 
L 19.671875 34.8125 
L 19.671875 0 
L 9.8125 0 
z
" id="DejaVuSans-46"/>
       <path d="M 56.203125 29.59375 
L 56.203125 25.203125 
L 14.890625 25.203125 
Q 15.484375 15.921875 20.484375 11.0625 
Q 25.484375 6.203125 34.421875 6.203125 
Q 39.59375 6.203125 44.453125 7.46875 
Q 49.3125 8.734375 54.109375 11.28125 
L 54.109375 2.78125 
Q 49.265625 0.734375 44.1875 -0.34375 
Q 39.109375 -1.421875 33.890625 -1.421875 
Q 20.796875 -1.421875 13.15625 6.1875 
Q 5.515625 13.8125 5.515625 26.8125 
Q 5.515625 40.234375 12.765625 48.109375 
Q 20.015625 56 32.328125 56 
Q 43.359375 56 49.78125 48.890625 
Q 56.203125 41.796875 56.203125 29.59375 
z
M 47.21875 32.234375 
Q 47.125 39.59375 43.09375 43.984375 
Q 39.0625 48.390625 32.421875 48.390625 
Q 24.90625 48.390625 20.390625 44.140625 
Q 15.875 39.890625 15.1875 32.171875 
z
" id="DejaVuSans-65"/>
       <path d="M 48.6875 27.296875 
Q 48.6875 37.203125 44.609375 42.84375 
Q 40.53125 48.484375 33.40625 48.484375 
Q 26.265625 48.484375 22.1875 42.84375 
Q 18.109375 37.203125 18.109375 27.296875 
Q 18.109375 17.390625 22.1875 11.75 
Q 26.265625 6.109375 33.40625 6.109375 
Q 40.53125 6.109375 44.609375 11.75 
Q 48.6875 17.390625 48.6875 27.296875 
z
M 18.109375 46.390625 
Q 20.953125 51.265625 25.265625 53.625 
Q 29.59375 56 35.59375 56 
Q 45.5625 56 51.78125 48.09375 
Q 58.015625 40.1875 58.015625 27.296875 
Q 58.015625 14.40625 51.78125 6.484375 
Q 45.5625 -1.421875 35.59375 -1.421875 
Q 29.59375 -1.421875 25.265625 0.953125 
Q 20.953125 3.328125 18.109375 8.203125 
L 18.109375 0 
L 9.078125 0 
L 9.078125 75.984375 
L 18.109375 75.984375 
z
" id="DejaVuSans-62"/>
      </defs>
      <g transform="translate(628.146477 520.99375)rotate(-90)scale(0.12 -0.12)">
       <use xlink:href="#DejaVuSans-46"/>
       <use x="57.441406" xlink:href="#DejaVuSans-65"/>
       <use x="118.964844" xlink:href="#DejaVuSans-62"/>
       <use x="182.441406" xlink:href="#DejaVuSans-2d"/>
       <use x="218.525391" xlink:href="#DejaVuSans-30"/>
       <use x="282.148438" xlink:href="#DejaVuSans-31"/>
      </g>
     </g>
    </g>
    <g id="xtick_21">
     <g id="line2d_21">
      <g>
       <use style="stroke:#000000;stroke-width:0.8;" x="648.613636" xlink:href="#mcaa709ef7f" y="472.5"/>
      </g>
     </g>
     <g id="text_21">
      <!-- Feb-02 -->
      <g transform="translate(651.924886 520.99375)rotate(-90)scale(0.12 -0.12)">
       <use xlink:href="#DejaVuSans-46"/>
       <use x="57.441406" xlink:href="#DejaVuSans-65"/>
       <use x="118.964844" xlink:href="#DejaVuSans-62"/>
       <use x="182.441406" xlink:href="#DejaVuSans-2d"/>
       <use x="218.525391" xlink:href="#DejaVuSans-30"/>
       <use x="282.148438" xlink:href="#DejaVuSans-32"/>
      </g>
     </g>
    </g>
    <g id="xtick_22">
     <g id="line2d_22">
      <g>
       <use style="stroke:#000000;stroke-width:0.8;" x="672.392045" xlink:href="#mcaa709ef7f" y="472.5"/>
      </g>
     </g>
     <g id="text_22">
      <!-- Feb-03 -->
      <g transform="translate(675.703295 520.99375)rotate(-90)scale(0.12 -0.12)">
       <use xlink:href="#DejaVuSans-46"/>
       <use x="57.441406" xlink:href="#DejaVuSans-65"/>
       <use x="118.964844" xlink:href="#DejaVuSans-62"/>
       <use x="182.441406" xlink:href="#DejaVuSans-2d"/>
       <use x="218.525391" xlink:href="#DejaVuSans-30"/>
       <use x="282.148438" xlink:href="#DejaVuSans-33"/>
      </g>
     </g>
    </g>
    <g id="xtick_23">
     <g id="line2d_23">
      <g>
       <use style="stroke:#000000;stroke-width:0.8;" x="696.170455" xlink:href="#mcaa709ef7f" y="472.5"/>
      </g>
     </g>
     <g id="text_23">
      <!-- Feb-04 -->
      <g transform="translate(699.481705 520.99375)rotate(-90)scale(0.12 -0.12)">
       <use xlink:href="#DejaVuSans-46"/>
       <use x="57.441406" xlink:href="#DejaVuSans-65"/>
       <use x="118.964844" xlink:href="#DejaVuSans-62"/>
       <use x="182.441406" xlink:href="#DejaVuSans-2d"/>
       <use x="218.525391" xlink:href="#DejaVuSans-30"/>
       <use x="282.148438" xlink:href="#DejaVuSans-34"/>
      </g>
     </g>
    </g>
    <g id="xtick_24">
     <g id="line2d_24">
      <g>
       <use style="stroke:#000000;stroke-width:0.8;" x="719.948864" xlink:href="#mcaa709ef7f" y="472.5"/>
      </g>
     </g>
     <g id="text_24">
      <!-- Feb-05 -->
      <g transform="translate(723.260114 520.99375)rotate(-90)scale(0.12 -0.12)">
       <use xlink:href="#DejaVuSans-46"/>
       <use x="57.441406" xlink:href="#DejaVuSans-65"/>
       <use x="118.964844" xlink:href="#DejaVuSans-62"/>
       <use x="182.441406" xlink:href="#DejaVuSans-2d"/>
       <use x="218.525391" xlink:href="#DejaVuSans-30"/>
       <use x="282.148438" xlink:href="#DejaVuSans-35"/>
      </g>
     </g>
    </g>
    <g id="xtick_25">
     <g id="line2d_25">
      <g>
       <use style="stroke:#000000;stroke-width:0.8;" x="743.727273" xlink:href="#mcaa709ef7f" y="472.5"/>
      </g>
     </g>
     <g id="text_25">
      <!-- Feb-06 -->
      <g transform="translate(747.038523 520.99375)rotate(-90)scale(0.12 -0.12)">
       <use xlink:href="#DejaVuSans-46"/>
       <use x="57.441406" xlink:href="#DejaVuSans-65"/>
       <use x="118.964844" xlink:href="#DejaVuSans-62"/>
       <use x="182.441406" xlink:href="#DejaVuSans-2d"/>
       <use x="218.525391" xlink:href="#DejaVuSans-30"/>
       <use x="282.148438" xlink:href="#DejaVuSans-36"/>
      </g>
     </g>
    </g>
    <g id="xtick_26">
     <g id="line2d_26">
      <g>
       <use style="stroke:#000000;stroke-width:0.8;" x="767.505682" xlink:href="#mcaa709ef7f" y="472.5"/>
      </g>
     </g>
     <g id="text_26">
      <!-- Feb-07 -->
      <g transform="translate(770.816932 520.99375)rotate(-90)scale(0.12 -0.12)">
       <use xlink:href="#DejaVuSans-46"/>
       <use x="57.441406" xlink:href="#DejaVuSans-65"/>
       <use x="118.964844" xlink:href="#DejaVuSans-62"/>
       <use x="182.441406" xlink:href="#DejaVuSans-2d"/>
       <use x="218.525391" xlink:href="#DejaVuSans-30"/>
       <use x="282.148438" xlink:href="#DejaVuSans-37"/>
      </g>
     </g>
    </g>
    <g id="xtick_27">
     <g id="line2d_27">
      <g>
       <use style="stroke:#000000;stroke-width:0.8;" x="791.284091" xlink:href="#mcaa709ef7f" y="472.5"/>
      </g>
     </g>
     <g id="text_27">
      <!-- Feb-08 -->
      <g transform="translate(794.595341 520.99375)rotate(-90)scale(0.12 -0.12)">
       <use xlink:href="#DejaVuSans-46"/>
       <use x="57.441406" xlink:href="#DejaVuSans-65"/>
       <use x="118.964844" xlink:href="#DejaVuSans-62"/>
       <use x="182.441406" xlink:href="#DejaVuSans-2d"/>
       <use x="218.525391" xlink:href="#DejaVuSans-30"/>
       <use x="282.148438" xlink:href="#DejaVuSans-38"/>
      </g>
     </g>
    </g>
    <g id="xtick_28">
     <g id="line2d_28">
      <g>
       <use style="stroke:#000000;stroke-width:0.8;" x="815.0625" xlink:href="#mcaa709ef7f" y="472.5"/>
      </g>
     </g>
     <g id="text_28">
      <!-- Feb-09 -->
      <g transform="translate(818.37375 520.99375)rotate(-90)scale(0.12 -0.12)">
       <use xlink:href="#DejaVuSans-46"/>
       <use x="57.441406" xlink:href="#DejaVuSans-65"/>
       <use x="118.964844" xlink:href="#DejaVuSans-62"/>
       <use x="182.441406" xlink:href="#DejaVuSans-2d"/>
       <use x="218.525391" xlink:href="#DejaVuSans-30"/>
       <use x="282.148438" xlink:href="#DejaVuSans-39"/>
      </g>
     </g>
    </g>
    <g id="xtick_29">
     <g id="line2d_29">
      <g>
       <use style="stroke:#000000;stroke-width:0.8;" x="838.840909" xlink:href="#mcaa709ef7f" y="472.5"/>
      </g>
     </g>
     <g id="text_29">
      <!-- Feb-10 -->
      <g transform="translate(842.152159 520.99375)rotate(-90)scale(0.12 -0.12)">
       <use xlink:href="#DejaVuSans-46"/>
       <use x="57.441406" xlink:href="#DejaVuSans-65"/>
       <use x="118.964844" xlink:href="#DejaVuSans-62"/>
       <use x="182.441406" xlink:href="#DejaVuSans-2d"/>
       <use x="218.525391" xlink:href="#DejaVuSans-31"/>
       <use x="282.148438" xlink:href="#DejaVuSans-30"/>
      </g>
     </g>
    </g>
    <g id="xtick_30">
     <g id="line2d_30">
      <g>
       <use style="stroke:#000000;stroke-width:0.8;" x="862.619318" xlink:href="#mcaa709ef7f" y="472.5"/>
      </g>
     </g>
     <g id="text_30">
      <!-- Feb-11 -->
      <g transform="translate(865.930568 520.99375)rotate(-90)scale(0.12 -0.12)">
       <use xlink:href="#DejaVuSans-46"/>
       <use x="57.441406" xlink:href="#DejaVuSans-65"/>
       <use x="118.964844" xlink:href="#DejaVuSans-62"/>
       <use x="182.441406" xlink:href="#DejaVuSans-2d"/>
       <use x="218.525391" xlink:href="#DejaVuSans-31"/>
       <use x="282.148438" xlink:href="#DejaVuSans-31"/>
      </g>
     </g>
    </g>
    <g id="xtick_31">
     <g id="line2d_31">
      <g>
       <use style="stroke:#000000;stroke-width:0.8;" x="886.397727" xlink:href="#mcaa709ef7f" y="472.5"/>
      </g>
     </g>
     <g id="text_31">
      <!-- Feb-12 -->
      <g transform="translate(889.708977 520.99375)rotate(-90)scale(0.12 -0.12)">
       <use xlink:href="#DejaVuSans-46"/>
       <use x="57.441406" xlink:href="#DejaVuSans-65"/>
       <use x="118.964844" xlink:href="#DejaVuSans-62"/>
       <use x="182.441406" xlink:href="#DejaVuSans-2d"/>
       <use x="218.525391" xlink:href="#DejaVuSans-31"/>
       <use x="282.148438" xlink:href="#DejaVuSans-32"/>
      </g>
     </g>
    </g>
    <g id="xtick_32">
     <g id="line2d_32">
      <g>
       <use style="stroke:#000000;stroke-width:0.8;" x="910.176136" xlink:href="#mcaa709ef7f" y="472.5"/>
      </g>
     </g>
     <g id="text_32">
      <!-- Feb-13 -->
      <g transform="translate(913.487386 520.99375)rotate(-90)scale(0.12 -0.12)">
       <use xlink:href="#DejaVuSans-46"/>
       <use x="57.441406" xlink:href="#DejaVuSans-65"/>
       <use x="118.964844" xlink:href="#DejaVuSans-62"/>
       <use x="182.441406" xlink:href="#DejaVuSans-2d"/>
       <use x="218.525391" xlink:href="#DejaVuSans-31"/>
       <use x="282.148438" xlink:href="#DejaVuSans-33"/>
      </g>
     </g>
    </g>
    <g id="xtick_33">
     <g id="line2d_33">
      <g>
       <use style="stroke:#000000;stroke-width:0.8;" x="933.954545" xlink:href="#mcaa709ef7f" y="472.5"/>
      </g>
     </g>
     <g id="text_33">
      <!-- Feb-14 -->
      <g transform="translate(937.265795 520.99375)rotate(-90)scale(0.12 -0.12)">
       <use xlink:href="#DejaVuSans-46"/>
       <use x="57.441406" xlink:href="#DejaVuSans-65"/>
       <use x="118.964844" xlink:href="#DejaVuSans-62"/>
       <use x="182.441406" xlink:href="#DejaVuSans-2d"/>
       <use x="218.525391" xlink:href="#DejaVuSans-31"/>
       <use x="282.148438" xlink:href="#DejaVuSans-34"/>
      </g>
     </g>
    </g>
    <g id="text_34">
     <!-- Day -->
     <defs>
      <path d="M 19.671875 64.796875 
L 19.671875 8.109375 
L 31.59375 8.109375 
Q 46.6875 8.109375 53.6875 14.9375 
Q 60.6875 21.78125 60.6875 36.53125 
Q 60.6875 51.171875 53.6875 57.984375 
Q 46.6875 64.796875 31.59375 64.796875 
z
M 9.8125 72.90625 
L 30.078125 72.90625 
Q 51.265625 72.90625 61.171875 64.09375 
Q 71.09375 55.28125 71.09375 36.53125 
Q 71.09375 17.671875 61.125 8.828125 
Q 51.171875 0 30.078125 0 
L 9.8125 0 
z
" id="DejaVuSans-44"/>
      <path d="M 32.171875 -5.078125 
Q 28.375 -14.84375 24.75 -17.8125 
Q 21.140625 -20.796875 15.09375 -20.796875 
L 7.90625 -20.796875 
L 7.90625 -13.28125 
L 13.1875 -13.28125 
Q 16.890625 -13.28125 18.9375 -11.515625 
Q 21 -9.765625 23.484375 -3.21875 
L 25.09375 0.875 
L 2.984375 54.6875 
L 12.5 54.6875 
L 29.59375 11.921875 
L 46.6875 54.6875 
L 56.203125 54.6875 
z
" id="DejaVuSans-79"/>
     </defs>
     <g transform="translate(541.651875 534.111875)scale(0.12 -0.12)">
      <use xlink:href="#DejaVuSans-44"/>
      <use x="77.001953" xlink:href="#DejaVuSans-61"/>
      <use x="138.28125" xlink:href="#DejaVuSans-79"/>
     </g>
    </g>
   </g>
   <g id="matplotlib.axis_2">
    <g id="ytick_1">
     <g id="line2d_34">
      <defs>
       <path d="M 0 0 
L -3.5 0 
" id="m9746998e77" style="stroke:#000000;stroke-width:0.8;"/>
      </defs>
      <g>
       <use style="stroke:#000000;stroke-width:0.8;" x="135" xlink:href="#m9746998e77" y="472.5"/>
      </g>
     </g>
     <g id="text_35">
      <!-- 0.0 -->
      <defs>
       <path d="M 10.6875 12.40625 
L 21 12.40625 
L 21 0 
L 10.6875 0 
z
" id="DejaVuSans-2e"/>
      </defs>
      <g transform="translate(108.91625 477.059062)scale(0.12 -0.12)">
       <use xlink:href="#DejaVuSans-30"/>
       <use x="63.623047" xlink:href="#DejaVuSans-2e"/>
       <use x="95.410156" xlink:href="#DejaVuSans-30"/>
      </g>
     </g>
    </g>
    <g id="ytick_2">
     <g id="line2d_35">
      <g>
       <use style="stroke:#000000;stroke-width:0.8;" x="135" xlink:href="#m9746998e77" y="394.842857"/>
      </g>
     </g>
     <g id="text_36">
      <!-- 0.2 -->
      <g transform="translate(108.91625 399.40192)scale(0.12 -0.12)">
       <use xlink:href="#DejaVuSans-30"/>
       <use x="63.623047" xlink:href="#DejaVuSans-2e"/>
       <use x="95.410156" xlink:href="#DejaVuSans-32"/>
      </g>
     </g>
    </g>
    <g id="ytick_3">
     <g id="line2d_36">
      <g>
       <use style="stroke:#000000;stroke-width:0.8;" x="135" xlink:href="#m9746998e77" y="317.185714"/>
      </g>
     </g>
     <g id="text_37">
      <!-- 0.4 -->
      <g transform="translate(108.91625 321.744777)scale(0.12 -0.12)">
       <use xlink:href="#DejaVuSans-30"/>
       <use x="63.623047" xlink:href="#DejaVuSans-2e"/>
       <use x="95.410156" xlink:href="#DejaVuSans-34"/>
      </g>
     </g>
    </g>
    <g id="ytick_4">
     <g id="line2d_37">
      <g>
       <use style="stroke:#000000;stroke-width:0.8;" x="135" xlink:href="#m9746998e77" y="239.528571"/>
      </g>
     </g>
     <g id="text_38">
      <!-- 0.6 -->
      <g transform="translate(108.91625 244.087634)scale(0.12 -0.12)">
       <use xlink:href="#DejaVuSans-30"/>
       <use x="63.623047" xlink:href="#DejaVuSans-2e"/>
       <use x="95.410156" xlink:href="#DejaVuSans-36"/>
      </g>
     </g>
    </g>
    <g id="ytick_5">
     <g id="line2d_38">
      <g>
       <use style="stroke:#000000;stroke-width:0.8;" x="135" xlink:href="#m9746998e77" y="161.871429"/>
      </g>
     </g>
     <g id="text_39">
      <!-- 0.8 -->
      <g transform="translate(108.91625 166.430491)scale(0.12 -0.12)">
       <use xlink:href="#DejaVuSans-30"/>
       <use x="63.623047" xlink:href="#DejaVuSans-2e"/>
       <use x="95.410156" xlink:href="#DejaVuSans-38"/>
      </g>
     </g>
    </g>
    <g id="ytick_6">
     <g id="line2d_39">
      <g>
       <use style="stroke:#000000;stroke-width:0.8;" x="135" xlink:href="#m9746998e77" y="84.214286"/>
      </g>
     </g>
     <g id="text_40">
      <!-- 1.0 -->
      <g transform="translate(108.91625 88.773348)scale(0.12 -0.12)">
       <use xlink:href="#DejaVuSans-31"/>
       <use x="63.623047" xlink:href="#DejaVuSans-2e"/>
       <use x="95.410156" xlink:href="#DejaVuSans-30"/>
      </g>
     </g>
    </g>
    <g id="text_41">
     <!-- Proportion of Topics per day -->
     <defs>
      <path d="M 19.671875 64.796875 
L 19.671875 37.40625 
L 32.078125 37.40625 
Q 38.96875 37.40625 42.71875 40.96875 
Q 46.484375 44.53125 46.484375 51.125 
Q 46.484375 57.671875 42.71875 61.234375 
Q 38.96875 64.796875 32.078125 64.796875 
z
M 9.8125 72.90625 
L 32.078125 72.90625 
Q 44.34375 72.90625 50.609375 67.359375 
Q 56.890625 61.8125 56.890625 51.125 
Q 56.890625 40.328125 50.609375 34.8125 
Q 44.34375 29.296875 32.078125 29.296875 
L 19.671875 29.296875 
L 19.671875 0 
L 9.8125 0 
z
" id="DejaVuSans-50"/>
      <path d="M 41.109375 46.296875 
Q 39.59375 47.171875 37.8125 47.578125 
Q 36.03125 48 33.890625 48 
Q 26.265625 48 22.1875 43.046875 
Q 18.109375 38.09375 18.109375 28.8125 
L 18.109375 0 
L 9.078125 0 
L 9.078125 54.6875 
L 18.109375 54.6875 
L 18.109375 46.1875 
Q 20.953125 51.171875 25.484375 53.578125 
Q 30.03125 56 36.53125 56 
Q 37.453125 56 38.578125 55.875 
Q 39.703125 55.765625 41.0625 55.515625 
z
" id="DejaVuSans-72"/>
      <path d="M 30.609375 48.390625 
Q 23.390625 48.390625 19.1875 42.75 
Q 14.984375 37.109375 14.984375 27.296875 
Q 14.984375 17.484375 19.15625 11.84375 
Q 23.34375 6.203125 30.609375 6.203125 
Q 37.796875 6.203125 41.984375 11.859375 
Q 46.1875 17.53125 46.1875 27.296875 
Q 46.1875 37.015625 41.984375 42.703125 
Q 37.796875 48.390625 30.609375 48.390625 
z
M 30.609375 56 
Q 42.328125 56 49.015625 48.375 
Q 55.71875 40.765625 55.71875 27.296875 
Q 55.71875 13.875 49.015625 6.21875 
Q 42.328125 -1.421875 30.609375 -1.421875 
Q 18.84375 -1.421875 12.171875 6.21875 
Q 5.515625 13.875 5.515625 27.296875 
Q 5.515625 40.765625 12.171875 48.375 
Q 18.84375 56 30.609375 56 
z
" id="DejaVuSans-6f"/>
      <path d="M 18.109375 8.203125 
L 18.109375 -20.796875 
L 9.078125 -20.796875 
L 9.078125 54.6875 
L 18.109375 54.6875 
L 18.109375 46.390625 
Q 20.953125 51.265625 25.265625 53.625 
Q 29.59375 56 35.59375 56 
Q 45.5625 56 51.78125 48.09375 
Q 58.015625 40.1875 58.015625 27.296875 
Q 58.015625 14.40625 51.78125 6.484375 
Q 45.5625 -1.421875 35.59375 -1.421875 
Q 29.59375 -1.421875 25.265625 0.953125 
Q 20.953125 3.328125 18.109375 8.203125 
z
M 48.6875 27.296875 
Q 48.6875 37.203125 44.609375 42.84375 
Q 40.53125 48.484375 33.40625 48.484375 
Q 26.265625 48.484375 22.1875 42.84375 
Q 18.109375 37.203125 18.109375 27.296875 
Q 18.109375 17.390625 22.1875 11.75 
Q 26.265625 6.109375 33.40625 6.109375 
Q 40.53125 6.109375 44.609375 11.75 
Q 48.6875 17.390625 48.6875 27.296875 
z
" id="DejaVuSans-70"/>
      <path d="M 18.3125 70.21875 
L 18.3125 54.6875 
L 36.8125 54.6875 
L 36.8125 47.703125 
L 18.3125 47.703125 
L 18.3125 18.015625 
Q 18.3125 11.328125 20.140625 9.421875 
Q 21.96875 7.515625 27.59375 7.515625 
L 36.8125 7.515625 
L 36.8125 0 
L 27.59375 0 
Q 17.1875 0 13.234375 3.875 
Q 9.28125 7.765625 9.28125 18.015625 
L 9.28125 47.703125 
L 2.6875 47.703125 
L 2.6875 54.6875 
L 9.28125 54.6875 
L 9.28125 70.21875 
z
" id="DejaVuSans-74"/>
      <path d="M 9.421875 54.6875 
L 18.40625 54.6875 
L 18.40625 0 
L 9.421875 0 
z
M 9.421875 75.984375 
L 18.40625 75.984375 
L 18.40625 64.59375 
L 9.421875 64.59375 
z
" id="DejaVuSans-69"/>
      <path id="DejaVuSans-20"/>
      <path d="M 37.109375 75.984375 
L 37.109375 68.5 
L 28.515625 68.5 
Q 23.6875 68.5 21.796875 66.546875 
Q 19.921875 64.59375 19.921875 59.515625 
L 19.921875 54.6875 
L 34.71875 54.6875 
L 34.71875 47.703125 
L 19.921875 47.703125 
L 19.921875 0 
L 10.890625 0 
L 10.890625 47.703125 
L 2.296875 47.703125 
L 2.296875 54.6875 
L 10.890625 54.6875 
L 10.890625 58.5 
Q 10.890625 67.625 15.140625 71.796875 
Q 19.390625 75.984375 28.609375 75.984375 
z
" id="DejaVuSans-66"/>
      <path d="M -0.296875 72.90625 
L 61.375 72.90625 
L 61.375 64.59375 
L 35.5 64.59375 
L 35.5 0 
L 25.59375 0 
L 25.59375 64.59375 
L -0.296875 64.59375 
z
" id="DejaVuSans-54"/>
      <path d="M 48.78125 52.59375 
L 48.78125 44.1875 
Q 44.96875 46.296875 41.140625 47.34375 
Q 37.3125 48.390625 33.40625 48.390625 
Q 24.65625 48.390625 19.8125 42.84375 
Q 14.984375 37.3125 14.984375 27.296875 
Q 14.984375 17.28125 19.8125 11.734375 
Q 24.65625 6.203125 33.40625 6.203125 
Q 37.3125 6.203125 41.140625 7.25 
Q 44.96875 8.296875 48.78125 10.40625 
L 48.78125 2.09375 
Q 45.015625 0.34375 40.984375 -0.53125 
Q 36.96875 -1.421875 32.421875 -1.421875 
Q 20.0625 -1.421875 12.78125 6.34375 
Q 5.515625 14.109375 5.515625 27.296875 
Q 5.515625 40.671875 12.859375 48.328125 
Q 20.21875 56 33.015625 56 
Q 37.15625 56 41.109375 55.140625 
Q 45.0625 54.296875 48.78125 52.59375 
z
" id="DejaVuSans-63"/>
      <path d="M 44.28125 53.078125 
L 44.28125 44.578125 
Q 40.484375 46.53125 36.375 47.5 
Q 32.28125 48.484375 27.875 48.484375 
Q 21.1875 48.484375 17.84375 46.4375 
Q 14.5 44.390625 14.5 40.28125 
Q 14.5 37.15625 16.890625 35.375 
Q 19.28125 33.59375 26.515625 31.984375 
L 29.59375 31.296875 
Q 39.15625 29.25 43.1875 25.515625 
Q 47.21875 21.78125 47.21875 15.09375 
Q 47.21875 7.46875 41.1875 3.015625 
Q 35.15625 -1.421875 24.609375 -1.421875 
Q 20.21875 -1.421875 15.453125 -0.5625 
Q 10.6875 0.296875 5.421875 2 
L 5.421875 11.28125 
Q 10.40625 8.6875 15.234375 7.390625 
Q 20.0625 6.109375 24.8125 6.109375 
Q 31.15625 6.109375 34.5625 8.28125 
Q 37.984375 10.453125 37.984375 14.40625 
Q 37.984375 18.0625 35.515625 20.015625 
Q 33.0625 21.96875 24.703125 23.78125 
L 21.578125 24.515625 
Q 13.234375 26.265625 9.515625 29.90625 
Q 5.8125 33.546875 5.8125 39.890625 
Q 5.8125 47.609375 11.28125 51.796875 
Q 16.75 56 26.8125 56 
Q 31.78125 56 36.171875 55.265625 
Q 40.578125 54.546875 44.28125 53.078125 
z
" id="DejaVuSans-73"/>
      <path d="M 45.40625 46.390625 
L 45.40625 75.984375 
L 54.390625 75.984375 
L 54.390625 0 
L 45.40625 0 
L 45.40625 8.203125 
Q 42.578125 3.328125 38.25 0.953125 
Q 33.9375 -1.421875 27.875 -1.421875 
Q 17.96875 -1.421875 11.734375 6.484375 
Q 5.515625 14.40625 5.515625 27.296875 
Q 5.515625 40.1875 11.734375 48.09375 
Q 17.96875 56 27.875 56 
Q 33.9375 56 38.25 53.625 
Q 42.578125 51.265625 45.40625 46.390625 
z
M 14.796875 27.296875 
Q 14.796875 17.390625 18.875 11.75 
Q 22.953125 6.109375 30.078125 6.109375 
Q 37.203125 6.109375 41.296875 11.75 
Q 45.40625 17.390625 45.40625 27.296875 
Q 45.40625 37.203125 41.296875 42.84375 
Q 37.203125 48.484375 30.078125 48.484375 
Q 22.953125 48.484375 18.875 42.84375 
Q 14.796875 37.203125 14.796875 27.296875 
z
" id="DejaVuSans-64"/>
     </defs>
     <g transform="translate(102.420625 353.47875)rotate(-90)scale(0.12 -0.12)">
      <use xlink:href="#DejaVuSans-50"/>
      <use x="60.287109" xlink:href="#DejaVuSans-72"/>
      <use x="101.369141" xlink:href="#DejaVuSans-6f"/>
      <use x="162.550781" xlink:href="#DejaVuSans-70"/>
      <use x="226.027344" xlink:href="#DejaVuSans-6f"/>
      <use x="287.208984" xlink:href="#DejaVuSans-72"/>
      <use x="328.322266" xlink:href="#DejaVuSans-74"/>
      <use x="367.53125" xlink:href="#DejaVuSans-69"/>
      <use x="395.314453" xlink:href="#DejaVuSans-6f"/>
      <use x="456.496094" xlink:href="#DejaVuSans-6e"/>
      <use x="519.875" xlink:href="#DejaVuSans-20"/>
      <use x="551.662109" xlink:href="#DejaVuSans-6f"/>
      <use x="612.84375" xlink:href="#DejaVuSans-66"/>
      <use x="648.048828" xlink:href="#DejaVuSans-20"/>
      <use x="679.835938" xlink:href="#DejaVuSans-54"/>
      <use x="740.654297" xlink:href="#DejaVuSans-6f"/>
      <use x="801.835938" xlink:href="#DejaVuSans-70"/>
      <use x="865.3125" xlink:href="#DejaVuSans-69"/>
      <use x="893.095703" xlink:href="#DejaVuSans-63"/>
      <use x="948.076172" xlink:href="#DejaVuSans-73"/>
      <use x="1000.175781" xlink:href="#DejaVuSans-20"/>
      <use x="1031.962891" xlink:href="#DejaVuSans-70"/>
      <use x="1095.439453" xlink:href="#DejaVuSans-65"/>
      <use x="1156.962891" xlink:href="#DejaVuSans-72"/>
      <use x="1198.076172" xlink:href="#DejaVuSans-20"/>
      <use x="1229.863281" xlink:href="#DejaVuSans-64"/>
      <use x="1293.339844" xlink:href="#DejaVuSans-61"/>
      <use x="1354.619141" xlink:href="#DejaVuSans-79"/>
     </g>
    </g>
   </g>
   <g id="line2d_40">
    <path clip-path="url(#p7726107205)" d="M 173.045455 436.733601 
L 196.823864 412.808325 
L 220.602273 437.677999 
L 244.380682 396.048235 
L 268.159091 436.77424 
L 291.9375 419.221511 
L 315.715909 419.327046 
L 339.494318 439.182527 
L 363.272727 440.585493 
L 387.051136 442.025474 
L 410.829545 421.363759 
L 434.607955 403.693689 
L 458.386364 415.191354 
L 482.164773 397.116048 
L 505.943182 408.649939 
L 529.721591 438.838652 
L 553.5 413.929581 
L 577.278409 441.06648 
L 601.056818 396.746573 
L 624.835227 448.082159 
L 648.613636 448.837391 
L 672.392045 408.433595 
L 696.170455 431.486188 
L 719.948864 424.89358 
L 743.727273 399.939032 
L 767.505682 391.708956 
L 791.284091 376.338004 
L 815.0625 395.491775 
L 838.840909 400.763986 
L 862.619318 390.913699 
L 886.397727 433.725074 
L 910.176136 331.505551 
L 933.954545 373.870606 
" style="fill:none;opacity:0.4;"/>
   </g>
   <g id="line2d_41">
    <path clip-path="url(#p7726107205)" d="M 173.045455 277.360418 
L 196.823864 357.451478 
L 220.602273 354.253342 
L 244.380682 300.594761 
L 268.159091 356.257053 
L 291.9375 343.337795 
L 315.715909 367.065529 
L 339.494318 371.473846 
L 363.272727 390.549991 
L 387.051136 350.147261 
L 410.829545 335.770134 
L 434.607955 351.586653 
L 458.386364 342.441538 
L 482.164773 353.015586 
L 505.943182 328.738002 
L 529.721591 349.017562 
L 553.5 293.972823 
L 577.278409 407.604348 
L 601.056818 344.523617 
L 624.835227 366.627033 
L 648.613636 355.029502 
L 672.392045 363.212557 
L 696.170455 365.645958 
L 719.948864 342.880888 
L 743.727273 373.433576 
L 767.505682 321.647612 
L 791.284091 302.338707 
L 815.0625 348.569426 
L 838.840909 300.722135 
L 862.619318 359.235388 
L 886.397727 373.94812 
L 910.176136 162.568032 
L 933.954545 303.641884 
" style="fill:none;opacity:0.4;"/>
   </g>
   <g id="line2d_42">
    <path clip-path="url(#p7726107205)" d="M 173.045455 225.141918 
L 196.823864 331.845137 
L 220.602273 273.254506 
L 244.380682 260.943182 
L 268.159091 317.980696 
L 291.9375 266.556503 
L 315.715909 311.904494 
L 339.494318 315.076427 
L 363.272727 285.538963 
L 387.051136 324.400967 
L 410.829545 294.889715 
L 434.607955 294.376833 
L 458.386364 299.216218 
L 482.164773 302.637041 
L 505.943182 256.032355 
L 529.721591 289.459795 
L 553.5 211.445893 
L 577.278409 215.244508 
L 601.056818 273.185787 
L 624.835227 260.237466 
L 648.613636 238.731643 
L 672.392045 297.71432 
L 696.170455 307.311178 
L 719.948864 282.322496 
L 743.727273 343.756751 
L 767.505682 280.741905 
L 791.284091 264.499109 
L 815.0625 306.10159 
L 838.840909 274.399516 
L 862.619318 328.403251 
L 886.397727 316.677471 
L 910.176136 150.12654 
L 933.954545 234.442564 
" style="fill:none;opacity:0.4;"/>
   </g>
   <g id="line2d_43">
    <path clip-path="url(#p7726107205)" d="M 173.045455 163.965199 
L 196.823864 281.655305 
L 220.602273 209.440352 
L 244.380682 217.525173 
L 268.159091 206.026333 
L 291.9375 205.96088 
L 315.715909 220.534209 
L 339.494318 246.792975 
L 363.272727 235.289496 
L 387.051136 240.455172 
L 410.829545 215.487965 
L 434.607955 230.997649 
L 458.386364 180.964217 
L 482.164773 229.570054 
L 505.943182 181.600633 
L 529.721591 231.186564 
L 553.5 187.311471 
L 577.278409 176.715654 
L 601.056818 202.239948 
L 624.835227 234.727647 
L 648.613636 182.879139 
L 672.392045 179.542478 
L 696.170455 253.246 
L 719.948864 168.719837 
L 743.727273 314.357645 
L 767.505682 240.047357 
L 791.284091 198.118508 
L 815.0625 261.601767 
L 838.840909 254.051936 
L 862.619318 271.975625 
L 886.397727 240.314756 
L 910.176136 109.146039 
L 933.954545 223.813911 
" style="fill:none;opacity:0.4;"/>
   </g>
   <g id="line2d_44">
    <path clip-path="url(#p7726107205)" d="M 173.045455 150.656015 
L 196.823864 126.703414 
L 220.602273 130.183135 
L 244.380682 152.879866 
L 268.159091 117.074946 
L 291.9375 148.047113 
L 315.715909 156.1854 
L 339.494318 129.312988 
L 363.272727 128.416063 
L 387.051136 126.58032 
L 410.829545 145.73815 
L 434.607955 154.55839 
L 458.386364 126.365414 
L 482.164773 130.773625 
L 505.943182 125.105629 
L 529.721591 156.170879 
L 553.5 121.42447 
L 577.278409 121.469866 
L 601.056818 125.649808 
L 624.835227 184.613955 
L 648.613636 118.239343 
L 672.392045 163.047528 
L 696.170455 142.003731 
L 719.948864 120.770845 
L 743.727273 285.225439 
L 767.505682 132.965789 
L 791.284091 136.155639 
L 815.0625 212.385871 
L 838.840909 137.318256 
L 862.619318 141.110507 
L 886.397727 150.420219 
L 910.176136 96.691202 
L 933.954545 94.843015 
" style="fill:none;opacity:0.4;"/>
   </g>
   <g id="line2d_45">
    <path clip-path="url(#p7726107205)" d="M 173.045455 84.214286 
L 196.823864 84.214286 
L 220.602273 84.214286 
L 244.380682 84.214286 
L 268.159091 84.214286 
L 291.9375 84.214286 
L 315.715909 84.214286 
L 339.494318 84.214286 
L 363.272727 84.214286 
L 387.051136 84.214286 
L 410.829545 84.214286 
L 434.607955 84.214286 
L 458.386364 84.214286 
L 482.164773 84.214286 
L 505.943182 84.214286 
L 529.721591 84.214286 
L 553.5 84.214286 
L 577.278409 84.214286 
L 601.056818 84.214286 
L 624.835227 84.214286 
L 648.613636 84.214286 
L 672.392045 84.214286 
L 696.170455 84.214286 
L 719.948864 84.214286 
L 743.727273 84.214286 
L 767.505682 84.214286 
L 791.284091 84.214286 
L 815.0625 84.214286 
L 838.840909 84.214286 
L 862.619318 84.214286 
L 886.397727 84.214286 
L 910.176136 84.214286 
L 933.954545 84.214286 
" style="fill:none;opacity:0.4;"/>
   </g>
   <g id="line2d_46">
    <path clip-path="url(#p7726107205)" d="M 196.823864 472.5 
L 196.823864 64.8 
" style="fill:none;stroke:#000000;stroke-linecap:square;"/>
   </g>
   <g id="line2d_47">
    <path clip-path="url(#p7726107205)" d="M 268.159091 472.5 
L 268.159091 64.8 
" style="fill:none;stroke:#000000;stroke-linecap:square;"/>
   </g>
   <g id="line2d_48">
    <path clip-path="url(#p7726107205)" d="M 458.386364 472.5 
L 458.386364 64.8 
" style="fill:none;stroke:#000000;stroke-linecap:square;"/>
   </g>
   <g id="line2d_49">
    <path clip-path="url(#p7726107205)" d="M 529.721591 472.5 
L 529.721591 64.8 
" style="fill:none;stroke:#000000;stroke-linecap:square;"/>
   </g>
   <g id="line2d_50">
    <path clip-path="url(#p7726107205)" d="M 862.619318 472.5 
L 862.619318 64.8 
" style="fill:none;stroke:#000000;stroke-linecap:square;"/>
   </g>
   <g id="patch_3">
    <path d="M 135 472.5 
L 135 64.8 
" style="fill:none;stroke:#000000;stroke-linecap:square;stroke-linejoin:miter;stroke-width:0.8;"/>
   </g>
   <g id="patch_4">
    <path d="M 972 472.5 
L 972 64.8 
" style="fill:none;stroke:#000000;stroke-linecap:square;stroke-linejoin:miter;stroke-width:0.8;"/>
   </g>
   <g id="patch_5">
    <path d="M 135 472.5 
L 972 472.5 
" style="fill:none;stroke:#000000;stroke-linecap:square;stroke-linejoin:miter;stroke-width:0.8;"/>
   </g>
   <g id="patch_6">
    <path d="M 135 64.8 
L 972 64.8 
" style="fill:none;stroke:#000000;stroke-linecap:square;stroke-linejoin:miter;stroke-width:0.8;"/>
   </g>
   <g id="text_42">
    <!-- Tunisian President Resigns -->
    <defs>
     <path d="M 8.5 21.578125 
L 8.5 54.6875 
L 17.484375 54.6875 
L 17.484375 21.921875 
Q 17.484375 14.15625 20.5 10.265625 
Q 23.53125 6.390625 29.59375 6.390625 
Q 36.859375 6.390625 41.078125 11.03125 
Q 45.3125 15.671875 45.3125 23.6875 
L 45.3125 54.6875 
L 54.296875 54.6875 
L 54.296875 0 
L 45.3125 0 
L 45.3125 8.40625 
Q 42.046875 3.421875 37.71875 1 
Q 33.40625 -1.421875 27.6875 -1.421875 
Q 18.265625 -1.421875 13.375 4.4375 
Q 8.5 10.296875 8.5 21.578125 
z
M 31.109375 56 
z
" id="DejaVuSans-75"/>
     <path d="M 44.390625 34.1875 
Q 47.5625 33.109375 50.5625 29.59375 
Q 53.5625 26.078125 56.59375 19.921875 
L 66.609375 0 
L 56 0 
L 46.6875 18.703125 
Q 43.0625 26.03125 39.671875 28.421875 
Q 36.28125 30.8125 30.421875 30.8125 
L 19.671875 30.8125 
L 19.671875 0 
L 9.8125 0 
L 9.8125 72.90625 
L 32.078125 72.90625 
Q 44.578125 72.90625 50.734375 67.671875 
Q 56.890625 62.453125 56.890625 51.90625 
Q 56.890625 45.015625 53.6875 40.46875 
Q 50.484375 35.9375 44.390625 34.1875 
z
M 19.671875 64.796875 
L 19.671875 38.921875 
L 32.078125 38.921875 
Q 39.203125 38.921875 42.84375 42.21875 
Q 46.484375 45.515625 46.484375 51.90625 
Q 46.484375 58.296875 42.84375 61.546875 
Q 39.203125 64.796875 32.078125 64.796875 
z
" id="DejaVuSans-52"/>
     <path d="M 45.40625 27.984375 
Q 45.40625 37.75 41.375 43.109375 
Q 37.359375 48.484375 30.078125 48.484375 
Q 22.859375 48.484375 18.828125 43.109375 
Q 14.796875 37.75 14.796875 27.984375 
Q 14.796875 18.265625 18.828125 12.890625 
Q 22.859375 7.515625 30.078125 7.515625 
Q 37.359375 7.515625 41.375 12.890625 
Q 45.40625 18.265625 45.40625 27.984375 
z
M 54.390625 6.78125 
Q 54.390625 -7.171875 48.1875 -13.984375 
Q 42 -20.796875 29.203125 -20.796875 
Q 24.46875 -20.796875 20.265625 -20.09375 
Q 16.0625 -19.390625 12.109375 -17.921875 
L 12.109375 -9.1875 
Q 16.0625 -11.328125 19.921875 -12.34375 
Q 23.78125 -13.375 27.78125 -13.375 
Q 36.625 -13.375 41.015625 -8.765625 
Q 45.40625 -4.15625 45.40625 5.171875 
L 45.40625 9.625 
Q 42.625 4.78125 38.28125 2.390625 
Q 33.9375 0 27.875 0 
Q 17.828125 0 11.671875 7.65625 
Q 5.515625 15.328125 5.515625 27.984375 
Q 5.515625 40.671875 11.671875 48.328125 
Q 17.828125 56 27.875 56 
Q 33.9375 56 38.28125 53.609375 
Q 42.625 51.21875 45.40625 46.390625 
L 45.40625 54.6875 
L 54.390625 54.6875 
z
" id="DejaVuSans-67"/>
    </defs>
    <g transform="translate(208.31983 245.447411)rotate(-90)scale(0.12 -0.12)">
     <use xlink:href="#DejaVuSans-54"/>
     <use x="60.849609" xlink:href="#DejaVuSans-75"/>
     <use x="124.228516" xlink:href="#DejaVuSans-6e"/>
     <use x="187.607422" xlink:href="#DejaVuSans-69"/>
     <use x="215.390625" xlink:href="#DejaVuSans-73"/>
     <use x="267.490234" xlink:href="#DejaVuSans-69"/>
     <use x="295.273438" xlink:href="#DejaVuSans-61"/>
     <use x="356.552734" xlink:href="#DejaVuSans-6e"/>
     <use x="419.931641" xlink:href="#DejaVuSans-20"/>
     <use x="451.71875" xlink:href="#DejaVuSans-50"/>
     <use x="512.005859" xlink:href="#DejaVuSans-72"/>
     <use x="553.087891" xlink:href="#DejaVuSans-65"/>
     <use x="614.611328" xlink:href="#DejaVuSans-73"/>
     <use x="666.710938" xlink:href="#DejaVuSans-69"/>
     <use x="694.494141" xlink:href="#DejaVuSans-64"/>
     <use x="757.970703" xlink:href="#DejaVuSans-65"/>
     <use x="819.494141" xlink:href="#DejaVuSans-6e"/>
     <use x="882.873047" xlink:href="#DejaVuSans-74"/>
     <use x="922.082031" xlink:href="#DejaVuSans-20"/>
     <use x="953.869141" xlink:href="#DejaVuSans-52"/>
     <use x="1023.289062" xlink:href="#DejaVuSans-65"/>
     <use x="1084.8125" xlink:href="#DejaVuSans-73"/>
     <use x="1136.912109" xlink:href="#DejaVuSans-69"/>
     <use x="1164.695312" xlink:href="#DejaVuSans-67"/>
     <use x="1228.171875" xlink:href="#DejaVuSans-6e"/>
     <use x="1291.550781" xlink:href="#DejaVuSans-73"/>
    </g>
   </g>
   <g id="text_43">
    <!-- New Tunisian Cabinet Announced -->
    <defs>
     <path d="M 9.8125 72.90625 
L 23.09375 72.90625 
L 55.421875 11.921875 
L 55.421875 72.90625 
L 64.984375 72.90625 
L 64.984375 0 
L 51.703125 0 
L 19.390625 60.984375 
L 19.390625 0 
L 9.8125 0 
z
" id="DejaVuSans-4e"/>
     <path d="M 4.203125 54.6875 
L 13.1875 54.6875 
L 24.421875 12.015625 
L 35.59375 54.6875 
L 46.1875 54.6875 
L 57.421875 12.015625 
L 68.609375 54.6875 
L 77.59375 54.6875 
L 63.28125 0 
L 52.6875 0 
L 40.921875 44.828125 
L 29.109375 0 
L 18.5 0 
z
" id="DejaVuSans-77"/>
     <path d="M 64.40625 67.28125 
L 64.40625 56.890625 
Q 59.421875 61.53125 53.78125 63.8125 
Q 48.140625 66.109375 41.796875 66.109375 
Q 29.296875 66.109375 22.65625 58.46875 
Q 16.015625 50.828125 16.015625 36.375 
Q 16.015625 21.96875 22.65625 14.328125 
Q 29.296875 6.6875 41.796875 6.6875 
Q 48.140625 6.6875 53.78125 8.984375 
Q 59.421875 11.28125 64.40625 15.921875 
L 64.40625 5.609375 
Q 59.234375 2.09375 53.4375 0.328125 
Q 47.65625 -1.421875 41.21875 -1.421875 
Q 24.65625 -1.421875 15.125 8.703125 
Q 5.609375 18.84375 5.609375 36.375 
Q 5.609375 53.953125 15.125 64.078125 
Q 24.65625 74.21875 41.21875 74.21875 
Q 47.75 74.21875 53.53125 72.484375 
Q 59.328125 70.75 64.40625 67.28125 
z
" id="DejaVuSans-43"/>
     <path d="M 34.1875 63.1875 
L 20.796875 26.90625 
L 47.609375 26.90625 
z
M 28.609375 72.90625 
L 39.796875 72.90625 
L 67.578125 0 
L 57.328125 0 
L 50.6875 18.703125 
L 17.828125 18.703125 
L 11.1875 0 
L 0.78125 0 
z
" id="DejaVuSans-41"/>
    </defs>
    <g transform="translate(279.655057 286.168661)rotate(-90)scale(0.12 -0.12)">
     <use xlink:href="#DejaVuSans-4e"/>
     <use x="74.804688" xlink:href="#DejaVuSans-65"/>
     <use x="136.328125" xlink:href="#DejaVuSans-77"/>
     <use x="218.115234" xlink:href="#DejaVuSans-20"/>
     <use x="249.902344" xlink:href="#DejaVuSans-54"/>
     <use x="310.751953" xlink:href="#DejaVuSans-75"/>
     <use x="374.130859" xlink:href="#DejaVuSans-6e"/>
     <use x="437.509766" xlink:href="#DejaVuSans-69"/>
     <use x="465.292969" xlink:href="#DejaVuSans-73"/>
     <use x="517.392578" xlink:href="#DejaVuSans-69"/>
     <use x="545.175781" xlink:href="#DejaVuSans-61"/>
     <use x="606.455078" xlink:href="#DejaVuSans-6e"/>
     <use x="669.833984" xlink:href="#DejaVuSans-20"/>
     <use x="701.621094" xlink:href="#DejaVuSans-43"/>
     <use x="771.445312" xlink:href="#DejaVuSans-61"/>
     <use x="832.724609" xlink:href="#DejaVuSans-62"/>
     <use x="896.201172" xlink:href="#DejaVuSans-69"/>
     <use x="923.984375" xlink:href="#DejaVuSans-6e"/>
     <use x="987.363281" xlink:href="#DejaVuSans-65"/>
     <use x="1048.886719" xlink:href="#DejaVuSans-74"/>
     <use x="1088.095703" xlink:href="#DejaVuSans-20"/>
     <use x="1119.882812" xlink:href="#DejaVuSans-41"/>
     <use x="1188.291016" xlink:href="#DejaVuSans-6e"/>
     <use x="1251.669922" xlink:href="#DejaVuSans-6e"/>
     <use x="1315.048828" xlink:href="#DejaVuSans-6f"/>
     <use x="1376.230469" xlink:href="#DejaVuSans-75"/>
     <use x="1439.609375" xlink:href="#DejaVuSans-6e"/>
     <use x="1502.988281" xlink:href="#DejaVuSans-63"/>
     <use x="1557.96875" xlink:href="#DejaVuSans-65"/>
     <use x="1619.492188" xlink:href="#DejaVuSans-64"/>
    </g>
   </g>
   <g id="text_44">
    <!-- Egyptian Revolution Begins -->
    <defs>
     <path d="M 9.8125 72.90625 
L 55.90625 72.90625 
L 55.90625 64.59375 
L 19.671875 64.59375 
L 19.671875 43.015625 
L 54.390625 43.015625 
L 54.390625 34.71875 
L 19.671875 34.71875 
L 19.671875 8.296875 
L 56.78125 8.296875 
L 56.78125 0 
L 9.8125 0 
z
" id="DejaVuSans-45"/>
     <path d="M 2.984375 54.6875 
L 12.5 54.6875 
L 29.59375 8.796875 
L 46.6875 54.6875 
L 56.203125 54.6875 
L 35.6875 0 
L 23.484375 0 
z
" id="DejaVuSans-76"/>
     <path d="M 9.421875 75.984375 
L 18.40625 75.984375 
L 18.40625 0 
L 9.421875 0 
z
" id="DejaVuSans-6c"/>
     <path d="M 19.671875 34.8125 
L 19.671875 8.109375 
L 35.5 8.109375 
Q 43.453125 8.109375 47.28125 11.40625 
Q 51.125 14.703125 51.125 21.484375 
Q 51.125 28.328125 47.28125 31.5625 
Q 43.453125 34.8125 35.5 34.8125 
z
M 19.671875 64.796875 
L 19.671875 42.828125 
L 34.28125 42.828125 
Q 41.5 42.828125 45.03125 45.53125 
Q 48.578125 48.25 48.578125 53.8125 
Q 48.578125 59.328125 45.03125 62.0625 
Q 41.5 64.796875 34.28125 64.796875 
z
M 9.8125 72.90625 
L 35.015625 72.90625 
Q 46.296875 72.90625 52.390625 68.21875 
Q 58.5 63.53125 58.5 54.890625 
Q 58.5 48.1875 55.375 44.234375 
Q 52.25 40.28125 46.1875 39.3125 
Q 53.46875 37.75 57.5 32.78125 
Q 61.53125 27.828125 61.53125 20.40625 
Q 61.53125 10.640625 54.890625 5.3125 
Q 48.25 0 35.984375 0 
L 9.8125 0 
z
" id="DejaVuSans-42"/>
    </defs>
    <g transform="translate(469.88233 249.268661)rotate(-90)scale(0.12 -0.12)">
     <use xlink:href="#DejaVuSans-45"/>
     <use x="63.183594" xlink:href="#DejaVuSans-67"/>
     <use x="126.660156" xlink:href="#DejaVuSans-79"/>
     <use x="185.839844" xlink:href="#DejaVuSans-70"/>
     <use x="249.316406" xlink:href="#DejaVuSans-74"/>
     <use x="288.525391" xlink:href="#DejaVuSans-69"/>
     <use x="316.308594" xlink:href="#DejaVuSans-61"/>
     <use x="377.587891" xlink:href="#DejaVuSans-6e"/>
     <use x="440.966797" xlink:href="#DejaVuSans-20"/>
     <use x="472.753906" xlink:href="#DejaVuSans-52"/>
     <use x="542.173828" xlink:href="#DejaVuSans-65"/>
     <use x="603.697266" xlink:href="#DejaVuSans-76"/>
     <use x="662.876953" xlink:href="#DejaVuSans-6f"/>
     <use x="724.058594" xlink:href="#DejaVuSans-6c"/>
     <use x="751.841797" xlink:href="#DejaVuSans-75"/>
     <use x="815.220703" xlink:href="#DejaVuSans-74"/>
     <use x="854.429688" xlink:href="#DejaVuSans-69"/>
     <use x="882.212891" xlink:href="#DejaVuSans-6f"/>
     <use x="943.394531" xlink:href="#DejaVuSans-6e"/>
     <use x="1006.773438" xlink:href="#DejaVuSans-20"/>
     <use x="1038.560547" xlink:href="#DejaVuSans-42"/>
     <use x="1107.164062" xlink:href="#DejaVuSans-65"/>
     <use x="1168.6875" xlink:href="#DejaVuSans-67"/>
     <use x="1232.164062" xlink:href="#DejaVuSans-69"/>
     <use x="1259.947266" xlink:href="#DejaVuSans-6e"/>
     <use x="1323.326172" xlink:href="#DejaVuSans-73"/>
    </g>
   </g>
   <g id="text_45">
    <!-- Day of Rage in Egypt -->
    <g transform="translate(541.217557 210.986786)rotate(-90)scale(0.12 -0.12)">
     <use xlink:href="#DejaVuSans-44"/>
     <use x="77.001953" xlink:href="#DejaVuSans-61"/>
     <use x="138.28125" xlink:href="#DejaVuSans-79"/>
     <use x="197.460938" xlink:href="#DejaVuSans-20"/>
     <use x="229.248047" xlink:href="#DejaVuSans-6f"/>
     <use x="290.429688" xlink:href="#DejaVuSans-66"/>
     <use x="325.634766" xlink:href="#DejaVuSans-20"/>
     <use x="357.421875" xlink:href="#DejaVuSans-52"/>
     <use x="426.873047" xlink:href="#DejaVuSans-61"/>
     <use x="488.152344" xlink:href="#DejaVuSans-67"/>
     <use x="551.628906" xlink:href="#DejaVuSans-65"/>
     <use x="613.152344" xlink:href="#DejaVuSans-20"/>
     <use x="644.939453" xlink:href="#DejaVuSans-69"/>
     <use x="672.722656" xlink:href="#DejaVuSans-6e"/>
     <use x="736.101562" xlink:href="#DejaVuSans-20"/>
     <use x="767.888672" xlink:href="#DejaVuSans-45"/>
     <use x="831.072266" xlink:href="#DejaVuSans-67"/>
     <use x="894.548828" xlink:href="#DejaVuSans-79"/>
     <use x="953.728516" xlink:href="#DejaVuSans-70"/>
     <use x="1017.205078" xlink:href="#DejaVuSans-74"/>
    </g>
   </g>
   <g id="text_46">
    <!-- Egyptian President Resigns -->
    <g transform="translate(874.115284 247.976786)rotate(-90)scale(0.12 -0.12)">
     <use xlink:href="#DejaVuSans-45"/>
     <use x="63.183594" xlink:href="#DejaVuSans-67"/>
     <use x="126.660156" xlink:href="#DejaVuSans-79"/>
     <use x="185.839844" xlink:href="#DejaVuSans-70"/>
     <use x="249.316406" xlink:href="#DejaVuSans-74"/>
     <use x="288.525391" xlink:href="#DejaVuSans-69"/>
     <use x="316.308594" xlink:href="#DejaVuSans-61"/>
     <use x="377.587891" xlink:href="#DejaVuSans-6e"/>
     <use x="440.966797" xlink:href="#DejaVuSans-20"/>
     <use x="472.753906" xlink:href="#DejaVuSans-50"/>
     <use x="533.041016" xlink:href="#DejaVuSans-72"/>
     <use x="574.123047" xlink:href="#DejaVuSans-65"/>
     <use x="635.646484" xlink:href="#DejaVuSans-73"/>
     <use x="687.746094" xlink:href="#DejaVuSans-69"/>
     <use x="715.529297" xlink:href="#DejaVuSans-64"/>
     <use x="779.005859" xlink:href="#DejaVuSans-65"/>
     <use x="840.529297" xlink:href="#DejaVuSans-6e"/>
     <use x="903.908203" xlink:href="#DejaVuSans-74"/>
     <use x="943.117188" xlink:href="#DejaVuSans-20"/>
     <use x="974.904297" xlink:href="#DejaVuSans-52"/>
     <use x="1044.324219" xlink:href="#DejaVuSans-65"/>
     <use x="1105.847656" xlink:href="#DejaVuSans-73"/>
     <use x="1157.947266" xlink:href="#DejaVuSans-69"/>
     <use x="1185.730469" xlink:href="#DejaVuSans-67"/>
     <use x="1249.207031" xlink:href="#DejaVuSans-6e"/>
     <use x="1312.585938" xlink:href="#DejaVuSans-73"/>
    </g>
   </g>
   <g id="text_47">
    <!-- Distribution of topics over time in Tunisia -->
    <defs>
     <path d="M 52 44.1875 
Q 55.375 50.25 60.0625 53.125 
Q 64.75 56 71.09375 56 
Q 79.640625 56 84.28125 50.015625 
Q 88.921875 44.046875 88.921875 33.015625 
L 88.921875 0 
L 79.890625 0 
L 79.890625 32.71875 
Q 79.890625 40.578125 77.09375 44.375 
Q 74.3125 48.1875 68.609375 48.1875 
Q 61.625 48.1875 57.5625 43.546875 
Q 53.515625 38.921875 53.515625 30.90625 
L 53.515625 0 
L 44.484375 0 
L 44.484375 32.71875 
Q 44.484375 40.625 41.703125 44.40625 
Q 38.921875 48.1875 33.109375 48.1875 
Q 26.21875 48.1875 22.15625 43.53125 
Q 18.109375 38.875 18.109375 30.90625 
L 18.109375 0 
L 9.078125 0 
L 9.078125 54.6875 
L 18.109375 54.6875 
L 18.109375 46.1875 
Q 21.1875 51.21875 25.484375 53.609375 
Q 29.78125 56 35.6875 56 
Q 41.65625 56 45.828125 52.96875 
Q 50 49.953125 52 44.1875 
z
" id="DejaVuSans-6d"/>
    </defs>
    <g transform="translate(404.7615 58.8)scale(0.144 -0.144)">
     <use xlink:href="#DejaVuSans-44"/>
     <use x="77.001953" xlink:href="#DejaVuSans-69"/>
     <use x="104.785156" xlink:href="#DejaVuSans-73"/>
     <use x="156.884766" xlink:href="#DejaVuSans-74"/>
     <use x="196.09375" xlink:href="#DejaVuSans-72"/>
     <use x="237.207031" xlink:href="#DejaVuSans-69"/>
     <use x="264.990234" xlink:href="#DejaVuSans-62"/>
     <use x="328.466797" xlink:href="#DejaVuSans-75"/>
     <use x="391.845703" xlink:href="#DejaVuSans-74"/>
     <use x="431.054688" xlink:href="#DejaVuSans-69"/>
     <use x="458.837891" xlink:href="#DejaVuSans-6f"/>
     <use x="520.019531" xlink:href="#DejaVuSans-6e"/>
     <use x="583.398438" xlink:href="#DejaVuSans-20"/>
     <use x="615.185547" xlink:href="#DejaVuSans-6f"/>
     <use x="676.367188" xlink:href="#DejaVuSans-66"/>
     <use x="711.572266" xlink:href="#DejaVuSans-20"/>
     <use x="743.359375" xlink:href="#DejaVuSans-74"/>
     <use x="782.568359" xlink:href="#DejaVuSans-6f"/>
     <use x="843.75" xlink:href="#DejaVuSans-70"/>
     <use x="907.226562" xlink:href="#DejaVuSans-69"/>
     <use x="935.009766" xlink:href="#DejaVuSans-63"/>
     <use x="989.990234" xlink:href="#DejaVuSans-73"/>
     <use x="1042.089844" xlink:href="#DejaVuSans-20"/>
     <use x="1073.876953" xlink:href="#DejaVuSans-6f"/>
     <use x="1135.058594" xlink:href="#DejaVuSans-76"/>
     <use x="1194.238281" xlink:href="#DejaVuSans-65"/>
     <use x="1255.761719" xlink:href="#DejaVuSans-72"/>
     <use x="1296.875" xlink:href="#DejaVuSans-20"/>
     <use x="1328.662109" xlink:href="#DejaVuSans-74"/>
     <use x="1367.871094" xlink:href="#DejaVuSans-69"/>
     <use x="1395.654297" xlink:href="#DejaVuSans-6d"/>
     <use x="1493.066406" xlink:href="#DejaVuSans-65"/>
     <use x="1554.589844" xlink:href="#DejaVuSans-20"/>
     <use x="1586.376953" xlink:href="#DejaVuSans-69"/>
     <use x="1614.160156" xlink:href="#DejaVuSans-6e"/>
     <use x="1677.539062" xlink:href="#DejaVuSans-20"/>
     <use x="1709.326172" xlink:href="#DejaVuSans-54"/>
     <use x="1770.175781" xlink:href="#DejaVuSans-75"/>
     <use x="1833.554688" xlink:href="#DejaVuSans-6e"/>
     <use x="1896.933594" xlink:href="#DejaVuSans-69"/>
     <use x="1924.716797" xlink:href="#DejaVuSans-73"/>
     <use x="1976.816406" xlink:href="#DejaVuSans-69"/>
     <use x="2004.599609" xlink:href="#DejaVuSans-61"/>
    </g>
   </g>
   <g id="legend_1">
    <g id="patch_7">
     <path d="M 980.4 324.2925 
L 1064.625 324.2925 
Q 1067.025 324.2925 1067.025 321.8925 
L 1067.025 215.4075 
Q 1067.025 213.0075 1064.625 213.0075 
L 980.4 213.0075 
Q 978 213.0075 978 215.4075 
L 978 321.8925 
Q 978 324.2925 980.4 324.2925 
z
" style="fill:#ffffff;opacity:0.8;stroke:#cccccc;stroke-linejoin:miter;"/>
    </g>
    <g id="patch_8">
     <path d="M 982.8 226.925625 
L 1006.8 226.925625 
L 1006.8 218.525625 
L 982.8 218.525625 
z
" style="fill:#7fc97f;opacity:0.4;"/>
    </g>
    <g id="text_48">
     <!-- Topic_0 -->
     <defs>
      <path d="M 50.984375 -16.609375 
L 50.984375 -23.578125 
L -0.984375 -23.578125 
L -0.984375 -16.609375 
z
" id="DejaVuSans-5f"/>
     </defs>
     <g transform="translate(1016.4 226.925625)scale(0.12 -0.12)">
      <use xlink:href="#DejaVuSans-54"/>
      <use x="60.818359" xlink:href="#DejaVuSans-6f"/>
      <use x="122" xlink:href="#DejaVuSans-70"/>
      <use x="185.476562" xlink:href="#DejaVuSans-69"/>
      <use x="213.259766" xlink:href="#DejaVuSans-63"/>
      <use x="268.240234" xlink:href="#DejaVuSans-5f"/>
      <use x="318.240234" xlink:href="#DejaVuSans-30"/>
     </g>
    </g>
    <g id="patch_9">
     <path d="M 982.8 244.873125 
L 1006.8 244.873125 
L 1006.8 236.473125 
L 982.8 236.473125 
z
" style="fill:#beaed4;opacity:0.4;"/>
    </g>
    <g id="text_49">
     <!-- Topic_1 -->
     <g transform="translate(1016.4 244.873125)scale(0.12 -0.12)">
      <use xlink:href="#DejaVuSans-54"/>
      <use x="60.818359" xlink:href="#DejaVuSans-6f"/>
      <use x="122" xlink:href="#DejaVuSans-70"/>
      <use x="185.476562" xlink:href="#DejaVuSans-69"/>
      <use x="213.259766" xlink:href="#DejaVuSans-63"/>
      <use x="268.240234" xlink:href="#DejaVuSans-5f"/>
      <use x="318.240234" xlink:href="#DejaVuSans-31"/>
     </g>
    </g>
    <g id="patch_10">
     <path d="M 982.8 262.820625 
L 1006.8 262.820625 
L 1006.8 254.420625 
L 982.8 254.420625 
z
" style="fill:#ffff99;opacity:0.4;"/>
    </g>
    <g id="text_50">
     <!-- Topic_2 -->
     <g transform="translate(1016.4 262.820625)scale(0.12 -0.12)">
      <use xlink:href="#DejaVuSans-54"/>
      <use x="60.818359" xlink:href="#DejaVuSans-6f"/>
      <use x="122" xlink:href="#DejaVuSans-70"/>
      <use x="185.476562" xlink:href="#DejaVuSans-69"/>
      <use x="213.259766" xlink:href="#DejaVuSans-63"/>
      <use x="268.240234" xlink:href="#DejaVuSans-5f"/>
      <use x="318.240234" xlink:href="#DejaVuSans-32"/>
     </g>
    </g>
    <g id="patch_11">
     <path d="M 982.8 280.768125 
L 1006.8 280.768125 
L 1006.8 272.368125 
L 982.8 272.368125 
z
" style="fill:#386cb0;opacity:0.4;"/>
    </g>
    <g id="text_51">
     <!-- Topic_3 -->
     <g transform="translate(1016.4 280.768125)scale(0.12 -0.12)">
      <use xlink:href="#DejaVuSans-54"/>
      <use x="60.818359" xlink:href="#DejaVuSans-6f"/>
      <use x="122" xlink:href="#DejaVuSans-70"/>
      <use x="185.476562" xlink:href="#DejaVuSans-69"/>
      <use x="213.259766" xlink:href="#DejaVuSans-63"/>
      <use x="268.240234" xlink:href="#DejaVuSans-5f"/>
      <use x="318.240234" xlink:href="#DejaVuSans-33"/>
     </g>
    </g>
    <g id="patch_12">
     <path d="M 982.8 298.715625 
L 1006.8 298.715625 
L 1006.8 290.315625 
L 982.8 290.315625 
z
" style="fill:#bf5b17;opacity:0.4;"/>
    </g>
    <g id="text_52">
     <!-- Topic_4 -->
     <g transform="translate(1016.4 298.715625)scale(0.12 -0.12)">
      <use xlink:href="#DejaVuSans-54"/>
      <use x="60.818359" xlink:href="#DejaVuSans-6f"/>
      <use x="122" xlink:href="#DejaVuSans-70"/>
      <use x="185.476562" xlink:href="#DejaVuSans-69"/>
      <use x="213.259766" xlink:href="#DejaVuSans-63"/>
      <use x="268.240234" xlink:href="#DejaVuSans-5f"/>
      <use x="318.240234" xlink:href="#DejaVuSans-34"/>
     </g>
    </g>
    <g id="patch_13">
     <path d="M 982.8 316.663125 
L 1006.8 316.663125 
L 1006.8 308.263125 
L 982.8 308.263125 
z
" style="fill:#666666;opacity:0.4;"/>
    </g>
    <g id="text_53">
     <!-- Topic_5 -->
     <g transform="translate(1016.4 316.663125)scale(0.12 -0.12)">
      <use xlink:href="#DejaVuSans-54"/>
      <use x="60.818359" xlink:href="#DejaVuSans-6f"/>
      <use x="122" xlink:href="#DejaVuSans-70"/>
      <use x="185.476562" xlink:href="#DejaVuSans-69"/>
      <use x="213.259766" xlink:href="#DejaVuSans-63"/>
      <use x="268.240234" xlink:href="#DejaVuSans-5f"/>
      <use x="318.240234" xlink:href="#DejaVuSans-35"/>
     </g>
    </g>
   </g>
  </g>
 </g>
 <defs>
  <clipPath id="p7726107205">
   <rect height="407.7" width="837" x="135" y="64.8"/>
  </clipPath>
 </defs>
</svg>
